SplineFontDB: 3.2
FontName: sachacHand
FullName: sachacHand
FamilyName: sachacHand
Weight: Regular

StartChar: H
Encoding: 72 72 0
Width: 381
VWidth: 0
Flags: HW
HStem: 5 21G<85.5 94.5> 344 16<99.3289 214.501 217.594 346.531> 350 18<123.499 346.531> 650 20G<93.5 101.5>
VStem: 80 21<5.61914 208.281 588.749 659.246> 87 14<22.5646 344 362.328 631.156> 351 15<154.188 349.531 366.235 536.578 538.313 644.281> 356 15<255.986 343.782 383.47 652.163>
LayerCount: 2
Back
Fore
SplineSet
317 344 m 0xd2
 290 344 266 350 237 350 c 0xb2
 191 350 145 345 99 344 c 1
 99 298 99 252 102 206 c 0
 103 185 104 163 104 141 c 0
 104 116 104 90 101 66 c 0
 100 60 100 5 89 5 c 0
 82 5 80 13 80 22 c 0xda
 80 34 83 49 84 54 c 0
 86 84 87 114 87 144 c 2
 87 518 l 2
 87 541 88 565 88 588 c 0
 88 604 88 619 86 634 c 0
 86 638 85 642 85 646 c 0
 85 657 88 668 99 670 c 1
 104 660 105 646 105 632 c 0
 105 614 103 596 103 582 c 0
 103 554 103 526 103 498 c 0
 103 470 103 442 101 414 c 2
 101 384 l 2
 101 376 101 369 99 362 c 1
 106 361 114 360 122 360 c 0xd4
 154 360 184 368 216 368 c 0xb4
 250 368 284 362 317 360 c 0
 318 360 319 360 320 360 c 0
 329 360 337 364 346 364 c 0
 347 364 348 364 349 364 c 2
 351 366 l 1
 349 371 349 377 349 383 c 0
 349 393 350 405 351 414 c 0xd6
 352 446 353 478 355 510 c 0
 355 519 356 528 356 537 c 0
 356 565 354 594 353 622 c 0
 353 627 350 636 350 644 c 0
 350 650 352 655 357 655 c 0
 368 656 368 637 369 630 c 0
 371 602 371 572 371 544 c 0xd1
 371 480 367 416 366 352 c 2
 366 274 l 2
 366 241 365 208 362 175 c 0
 358 138 357 101 352 64 c 0
 351 58 347 0 337 0 c 0
 331 0 330 7 330 17 c 0
 330 56 339 75 341 110 c 0
 344 165 348 219 349 274 c 0
 350 287 351 302 351 317 c 0
 351 329 350 340 347 350 c 1xb2
 337 345 327 344 317 344 c 0xd2
EndSplineSet
EndChar

StartChar: e
Encoding: 101 101 1
Width: 371
VWidth: 0
Flags: HW
HStem: 4 16<133.152 251.655> 242 20<225.343 312.819> 352 17<162.67 252.087>
VStem: 30 16<118.955 237.896> 313 18<260.282 300.468>
LayerCount: 2
Back
Fore
SplineSet
313 262 m 1
 309 277 312 290 302 304 c 0
 278 338 244 352 209 352 c 0
 143 352 73 301 54 238 c 0
 49 221 46 200 46 179 c 0
 46 131 60 78 90 50 c 0
 108 33 132 27 156 23 c 0
 167 21 179 20 191 20 c 0
 224 20 257 27 287 40 c 0
 290 41 305 49 313 49 c 0
 317 49 319 48 319 44 c 2
 319 42 l 2
 318 36 310 33 305 30 c 0
 272 14 230 4 183 4 c 0
 134 4 86 17 61 60 c 0
 41 94 30 139 30 184 c 0
 30 226 40 267 64 298 c 0
 96 339 153 364 204 369 c 0
 207 369 210 369 213 369 c 0
 265 369 331 326 331 271 c 0
 331 265 330 258 328 252 c 0
 326 243 308 242 293 242 c 2
 277 242 l 2
 225 240 171 229 120 219 c 0
 114 218 89 210 74 210 c 0
 67 210 63 212 63 216 c 0
 63 230 110 234 121 236 c 0
 163 244 206 250 248 255 c 0
 269 258 292 257 313 262 c 1
EndSplineSet
EndChar

StartChar: n
Encoding: 110 110 2
Width: 380
VWidth: 0
Flags: HW
HStem: 353 15<170.969 219.426>
VStem: 60 14<178.423 352.953> 62 17<0.127197 363.894> 302 18<-0.602535 197.194>
LayerCount: 2
Back
Fore
SplineSet
309 -18 m 4xd0
 294 -18 302 56 302 71 c 4
 302 79 303.134765625 87.0009765625 303 94 c 4
 302 146 294.412109375 241.190429688 284 292 c 4
 279.711914062 312.92578125 271.997070312 334.450195312 241 345 c 4
 238.005859375 346.018554688 198 348 195 348 c 4
 176 348 157 332 144 321 c 4
 102 284 87 167 84 113 c 4
 83 94 82 76 82 57 c 4
 82 56 79 -4 79 -5 c 4
 79 -10 78 -15 73 -17 c 6
 71 -17 l 6
 63 -17 62 39 62 71 c 4
 62 83 62 92 62 98 c 6
 62 109 l 6xb0
 61 152 60 224 60 266 c 6
 60 323 l 6xd0
 60 338 61 357 70 359 c 4
 71 359 71 360 72 360 c 4
 77 360 80 353 80 348 c 4
 80 347 79 346 79 345 c 4xb0
 77 322 76 300 76 277 c 4
 76 263 74 218 74 203 c 4
 74 192 75 182 78 173 c 5
 82 216 108 311 134 335 c 4
 148 348 172 363 195 363 c 4
 218 363 269 356 283 331 c 4
 306 290 312 181 316 135 c 4
 318 113 320 91 320 69 c 4
 320 65 317 3 317 -2 c 4
 317 -10 315 -18 309 -18 c 4xd0
EndSplineSet
EndChar

StartChar: A
Encoding: 65 65 3
Width: 523
VWidth: 0
Flags: HW
HStem: 4 16<159.793 240.956> 637 15<277.86 352.063>
VStem: 60 15<168.491 323.537> 426 12<216.134 404.047> 438 21<463.979 560.818>
LayerCount: 2
Back
Fore
SplineSet
311 637 m 0xe8
 258 637 219 583 189 548 c 0
 117 464 75 356 75 246 c 0
 75 214 79 182 86 150 c 0
 99 94 122 20 196 20 c 0
 252 20 294 50 321 90 c 0
 374 170 409 279 422 374 c 0
 425 397 426 421 426 444 c 0xf0
 426 471 438 501 438 527 c 0
 438 592 368 637 311 637 c 0xe8
458 501 m 0
 458 447 437 400 437 344 c 0
 437 332 438 320 438 307 c 0
 438 256 443 203 455 158 c 0
 469 108 498 54 541 24 c 0
 545 21 573 9 573 0 c 0
 573 -11 551 -2 547 0 c 0
 479 36 426 129 426 213 c 2
 426 253 l 2
 426 271 426 289 421 306 c 1
 421 250 388 189 366 138 c 0
 359 123 350 108 342 94 c 0
 314 45 257 4 194 4 c 0
 114 4 85 75 72 135 c 0
 64 171 60 208 60 244 c 0
 60 352 95 458 165 544 c 0
 203 591 250 652 315 652 c 0
 364 652 404 627 426 598 c 0xf0
 438 582 452 558 458 539 c 0
 459 535 459 531 459 527 c 0xe8
 459 518 458 509 458 501 c 0
EndSplineSet
EndChar

StartChar: M
Encoding: 77 77 4
Width: 614
VWidth: 0
Flags: HW
HStem: 647 20G<532.5 548>
VStem: 60 42<620.344 662> 81 16<27.4695 411.516> 85 19<258.484 590 601.415 614.671 644 670.903> 551 16<261.713 568.332> 566 18<-9.88525 171.796>
LayerCount: 2
Back
Fore
SplineSet
297 318 m 1xc0
 324 376 359 432 396 484 c 0
 434 537 460 567 498 620 c 0
 506 632 524 667 541 667 c 2
 543 667 l 2
 553 665 551 648 552 640 c 0
 555 609 560 571 562 540 c 0
 565 492 565 474 567 426 c 0xc8
 570 342 577 258 577 174 c 0
 577 127 581 79 583 32 c 0
 583 29 584 21 584 13 c 0
 584 2 582 -10 574 -10 c 0
 568 -10 566 0 566 10 c 0x84
 566 17 567 24 567 27 c 0
 566 67 565 106 562 146 c 0
 555 240 552 337 551 432 c 0
 550 509 544 565 535 642 c 1
 453 537 381 444 318 322 c 0
 314 315 309 298 300 296 c 0
 292 294 285 306 281 310 c 0
 266 325 250 338 238 356 c 0
 214 393 195 434 172 472 c 0
 149 510 121 549 103 590 c 1
 101 590 l 1
 103 572 104 554 104 535 c 0x98
 104 495 100 453 99 414 c 0
 97 361 97 309 97 256 c 0
 97 183 97 111 97 38 c 0
 97 33 96 -4 83 11 c 0
 80 14 79 20 79 27 c 0
 79 37 81 48 81 54 c 2
 81 176 l 2xa0
 81 299 85 421 85 544 c 0x90
 85 557 88 575 88 591 c 0
 88 600 87 608 84 615 c 0
 79 625 60 642 60 655 c 0
 60 656 60 657 60 658 c 0xc0
 65 674 82 648 85 644 c 1x90
 86 651 83 676 97 671 c 0xa0
 102 669 104 662 104 653 c 0x90
 104 644 102 634 102 627 c 0
 102 625 103 622 103 621 c 0
 107 607 120 593 128 580 c 0
 169 511 205 439 248 372 c 0
 261 352 284 338 295 318 c 1
 297 318 l 1xc0
EndSplineSet
EndChar

StartChar: Y
Encoding: 89 89 5
Width: 380
VWidth: 0
Flags: HW
HStem: 8 13<164.327 233.268>
VStem: 40.125 16<544.536 664.945> 352.125 8<457 591> 366.125 14<189.075 385.022>
LayerCount: 2
Back
Fore
SplineSet
344.125 568 m 1
 341.125 527 323.125 481 305.125 444 c 0
 284.125 401 259.125 355 224.125 325 c 0
 179.125 286 136.125 302 105.125 350 c 0
 65.125 412 54.125 493 45.125 565 c 0
 42.125 591 41.125 617 40.125 643 c 0
 40.125 650 38.125 666 50.125 665 c 0
 58.125 664 55.125 652 56.125 646 c 0
 58.125 624 58.125 602 60.125 580 c 0
 65.125 510 78.125 427 115.125 366 c 0
 126.125 348 149.125 317 174.125 317 c 0
 177.125 317 179.125 317 182.125 318 c 0
 210.125 326 232.125 356 248.125 378 c 0
 294.125 443 317.125 518 335.125 594 c 0
 340.125 617 342.125 642 348.125 664 c 0
 350.125 671 359.125 683 366.125 673 c 0
 368.125 670 368.125 667 368.125 664 c 0
 368.125 654 363.125 642 362.125 634 c 0
 361.125 620 360.125 606 360.125 591 c 0
 360.125 573 361.125 554 362.125 538 c 0
 369.125 450 380.125 362 380.125 274 c 0
 380.125 213 373.125 146 343.125 92 c 0
 315.125 41 255.125 8 198.125 8 c 0
 156.125 8 114.125 26 89.125 68 c 0
 85.125 74 87.125 87 97.125 82 c 0
 122.125 70 135.125 39 162.125 28 c 0
 173.125 23 185.125 21 197.125 21 c 0
 252.125 21 313.125 66 334.125 110 c 0
 358.125 160 366.125 216 366.125 274 c 0
 366.125 336 357.125 400 352.125 457 c 0
 349.125 492 354.125 535 344.125 568 c 1
EndSplineSet
EndChar

StartChar: eight
Encoding: 56 56 6
Width: 365
VWidth: 0
Flags: HW
HStem: 9 14<172.17 250.864> 646 19<161.297 259.565>
VStem: 60 14<490.533 556.114> 64 17<76.2567 147.232> 263 42<599.095 634.716> 271 16<38.0143 117.143> 282 17<516.344 594.43>
LayerCount: 2
Back
Fore
SplineSet
212 9 m 0xc4
 150 9 64 34 64 108 c 0xd4
 64 163 108 224 135 263 c 0
 144 277 169 299 171 316 c 0
 172 324 161 335 156 341 c 0
 120 389 60 455 60 524 c 0
 60 543 64 563 76 583 c 0
 100 622 149 665 209 665 c 2
 222 665 l 2
 246 662 275 653 292 635 c 0
 297 629 305 619 305 610 c 0xe8
 305 605 302 601 294 599 c 1
 298 588 299 576 299 563 c 0xc2
 299 503 265 431 240 385 c 0
 231 371 224 355 214 341 c 0
 210 335 200 326 199 319 c 0
 198 313 206 304 210 299 c 0
 220 283 231 268 240 251 c 0
 264 204 276 151 283 100 c 0
 285 89 287 76 287 64 c 0
 287 53 285 42 280 32 c 0
 270 14 244 10 224 9 c 0
 220 9 216 9 212 9 c 0xc4
183 333 m 1
 187 333 l 1
 231 403 273 478 282 562 c 1
 282 566 l 2xe2
 282 588 263 607 263 627 c 0
 263 630 263 632 264 635 c 0
 245 642 227 646 209 646 c 0
 164 646 123 624 94 581 c 0
 83 564 74 544 74 524 c 0xe8
 74 521 74 518 75 515 c 0
 85 444 145 390 183 333 c 1
185 303 m 1
 160 272 137 239 118 205 c 0
 103 177 81 141 81 107 c 0
 81 74 100 62 121 49 c 0
 143 37 182 23 216 23 c 0
 232 23 248 26 260 35 c 0
 268 41 271 52 271 65 c 0xd4
 271 81 267 98 265 108 c 0
 253 175 234 253 185 303 c 1
EndSplineSet
EndChar

StartChar: quotesingle
Encoding: 39 39 7
Width: 142
VWidth: 0
Flags: HW
HStem: 483 190
VStem: 68.4221 14<503.556 670.097>
LayerCount: 2
Back
Fore
SplineSet
62.421875 659 m 0
 62.421875 667 63.421875 673 70.421875 673 c 0
 81.421875 673 81.421875 642 81.421875 636 c 0
 82.421875 615 82.421875 594 82.421875 573 c 0
 82.421875 555 82.421875 537 80.421875 520 c 0
 79.421875 510 79.421875 488 69.421875 483 c 0
 53.421875 475 62.421875 507 63.421875 512 c 0
 66.421875 535 68.421875 559 68.421875 583 c 0
 68.421875 597 67.421875 612 66.421875 626 c 0
 65.421875 632 62.421875 647 62.421875 659 c 0
EndSplineSet
EndChar

StartChar: numbersign
Encoding: 35 35 8
Width: 522
VWidth: 0
Flags: HW
HStem: 270 20<97.4309 189.836> 280 20<343.493 460.592> 434 18<61.4517 145.118> 458 16<204.011 317.118 333.147 426.839>
VStem: 190.118 19<181.411 274 290 435.8 468 522.711> 199.118 17<156.198 272.682> 311.118 16<387.125 458 477.791 597.671> 325.118 22<141.647 281.531>
LayerCount: 2
Back
Fore
SplineSet
347.118164062 157 m 0x71
 347.118164062 148 346.118164062 141 338.118164062 141 c 0
 329.118164062 141 331.118164062 167 330.118164062 172 c 0
 328.118164062 196 325.118164062 224 325.118164062 250 c 0x71
 325.118164062 261 326.118164062 272 327.118164062 282 c 1
 209.118164062 274 l 1x7a
 217.118164062 246 214.118164062 210 216.118164062 180 c 0
 216.118164062 174 219.118164062 148 206.118164062 156 c 0
 199.118164062 160 199.118164062 178 199.118164062 186 c 0x74
 197.118164062 214 200.118164062 247 193.118164062 274 c 1
 170.118164062 269 145.118164062 271 121.118164062 270 c 0
 114.118164062 270 100.118164062 266 97.1181640625 275 c 0
 94.1181640625 285 110.118164062 286 116.118164062 286 c 0
 132.118164062 287 152.118164062 290 170.118164062 290 c 0
 177.118164062 290 184.118164062 289 190.118164062 288 c 1
 190.118164062 371 l 1
 185.118164062 452 l 1
 155.118164062 442 120.118164062 440 89.1181640625 434 c 0
 82.1181640625 433 58.1181640625 426 60.1181640625 440 c 0
 61.1181640625 450 84.1181640625 451 91.1181640625 452 c 0
 123.118164062 458 155.118164062 462 187.118164062 468 c 1
 182.118164062 501 182.118164062 535 179.118164062 568 c 0
 178.118164062 574 173.118164062 601 187.118164062 598 c 0
 198.118164062 595 195.118164062 574 196.118164062 566 c 0
 200.118164062 533 200.118164062 501 203.118164062 468 c 1
 222.118164062 474 244.118164062 475 266.118164062 475 c 0
 284.118164062 475 301.118164062 474 317.118164062 474 c 1
 310.118164062 506 313.118164062 545 311.118164062 578 c 0
 311.118164062 583 316.118164062 612 327.118164062 597 c 0
 331.118164062 591 327.118164062 577 327.118164062 570 c 0xba
 328.118164062 549 331.118164062 529 331.118164062 508 c 2
 331.118164062 496 l 2
 331.118164062 479 334.118164062 473 351.118164062 473 c 0
 357.118164062 473 363.118164062 474 367.118164062 474 c 0
 391.118164062 473 430.118164062 475 450.118164062 458 c 0
 455.118164062 454 459.118164062 444 449.118164062 443 c 2
 448.118164062 443 l 2
 439.118164062 443 427.118164062 452 417.118164062 454 c 0
 389.118164062 458 361.118164062 458 333.118164062 458 c 1
 341.118164062 296 l 1
 354.118164062 300 369.118164062 300 384.118164062 300 c 2
 413.118164062 300 l 2
 421.118164062 300 429.118164062 300 436.118164062 301 c 0
 443.118164062 302 462.118164062 305 462.118164062 294 c 0
 462.118164062 284 443.118164062 285 436.118164062 285 c 0
 415.118164062 284 391.118164062 280 368.118164062 280 c 0
 359.118164062 280 351.118164062 281 343.118164062 282 c 1
 343.118164062 275 342.118164062 269 342.118164062 262 c 0
 342.118164062 234 345.118164062 205 346.118164062 178 c 0
 346.118164062 173 347.118164062 165 347.118164062 157 c 0x71
203.118164062 454 m 1
 209.118164062 290 l 1
 327.118164062 296 l 1xba
 317.118164062 458 l 1
 203.118164062 454 l 1
EndSplineSet
EndChar

StartChar: less
Encoding: 60 60 9
Width: 359
VWidth: 0
Flags: HW
VStem: 60 239
LayerCount: 2
Back
Fore
SplineSet
74 326 m 1
 136 296 196 257 252 218 c 0
 258 214 299 191 299 177 c 0
 299 166 284 173 280 176 c 0
 267 185 255 195 242 204 c 0
 199 234 154 262 108 287 c 0
 93 295 64 305 60 324 c 1
 60 328 l 2
 60 344 82 364 92 374 c 0
 129 414 165 454 199 496 c 0
 209 509 219 522 229 534 c 0
 232 538 237 544 243 540 c 0
 249 536 245 529 242 524 c 0
 233 510 221 497 211 484 c 0
 167 430 115 382 74 326 c 1
EndSplineSet
EndChar

StartChar: O
Encoding: 79 79 10
Width: 485
VWidth: 0
Flags: HW
HStem: 10 16<247.213 309.858> 653 16<191.656 304.379>
VStem: 70 16<205.167 356.037> 457 18<305.225 476.114>
LayerCount: 2
Back
Fore
SplineSet
154 652 m 0
 181 662 211 669 244 669 c 0
 259 669 276 667 292 664 c 0
 374 648 425 611 452 534 c 0
 468 489 475 443 475 396 c 0
 475 329 461 262 441 198 c 0
 419 127 378 26 294 11 c 0
 289 10 285 10 280 10 c 0
 243 10 207 33 179 53 c 0
 160 66 141 82 126 100 c 0
 85 150 70 209 70 271 c 0
 70 346 92 425 111 494 c 0
 123 537 139 560 163 598 c 0
 173 614 191 633 210 637 c 0
 216 638 234 638 228 627 c 0
 224 621 210 620 204 616 c 0
 191 607 180 594 172 580 c 0
 150 543 138 523 125 482 c 0
 105 418 86 347 86 277 c 0
 86 235 93 193 111 154 c 0
 133 105 182 66 229 42 c 0
 245 34 263 26 281 26 c 0
 284 26 288 26 291 27 c 0
 363 42 405 132 423 196 c 0
 441 261 457 330 457 397 c 0
 457 479 434 556 362 617 c 0
 332 642 289 653 248 653 c 0
 211 653 185 643 156 635 c 0
 151 633 142 631 139 637 c 0
 134 646 148 650 154 652 c 0
EndSplineSet
EndChar

StartChar: b
Encoding: 98 98 11
Width: 364
VWidth: 0
Flags: HW
HStem: 1 17<88.424 174.887> 356 15<177.205 229.483>
VStem: 60 19<365 640.648> 74 13<155.171 217.709 244.705 362> 308 16<128.922 234.265>
LayerCount: 2
Back
Fore
SplineSet
308 181 m 0xd8
 308 257 266 356 200 356 c 0
 143 356 96 250 89 195 c 0
 88 186 87 177 87 168 c 0
 87 145 90 122 90 101 c 0
 90 96 90 85 90 73 c 0
 90 55 90 34 88 21 c 1
 97 22 109 18 118 18 c 0
 119 18 121 18 123 18 c 0
 186 18 262 58 294 116 c 0
 304 133 308 156 308 181 c 0xd8
64 105 m 0
 64 147 74 186 74 229 c 0xd8
 74 255 71 282 70 307 c 0
 67 374 64 441 63 508 c 0
 63 542 63 576 62 610 c 0
 62 614 60 623 60 630 c 0
 60 636 61 641 67 641 c 0
 77 641 76 627 77 620 c 0
 79 596 79 572 79 548 c 0xe8
 79 484 84 420 85 356 c 0
 85 338 84 317 84 296 c 0
 84 277 85 259 89 244 c 1
 109 323 161 371 210 371 c 0
 249 371 286 341 306 272 c 0
 316 240 324 207 324 174 c 0
 324 148 319 123 304 100 c 0
 281 65 230 19 190 9 c 0
 170 4 149 1 128 1 c 0
 126 1 124 1 122 1 c 0
 108 1 92 1 81 6 c 0
 78 3 77 2 75 2 c 0
 66 2 65 31 65 51 c 0
 65 52 65 53 65 54 c 0
 65 61 65 67 65 72 c 0
 65 84 64 93 64 105 c 0
EndSplineSet
EndChar

StartChar: r
Encoding: 114 114 12
Width: 348
VWidth: 0
Flags: HW
HStem: 346 17<192.603 268.47>
VStem: 61 20<4.14643 209.397 232.469 335.063>
LayerCount: 2
Back
Fore
SplineSet
79 232 m 1
 88 291 159 357 218 363 c 1
 228 363 l 2
 248 363 272 359 289 350 c 0
 296 346 307 341 308 332 c 0
 309 325 302 324 297 326 c 0
 272 337 251 346 228 346 c 0
 213 346 198 342 181 333 c 0
 89 285 81 185 81 94 c 2
 81 63 l 2
 81 36 79 3 70 3 c 0
 69 3 69 4 68 4 c 0
 62 7 63 18 62 24 c 0
 61 30 61 39 61 48 c 0
 61 67 62 89 62 102 c 0
 62 162 61 222 61 282 c 0
 61 286 60 326 60 338 c 0
 60 351 61 364 67 364 c 2
 69 364 l 2
 78 362 77 345 77 338 c 0
 77 335 77 332 77 329 c 0
 77 317 76 277 76 264 c 0
 76 253 77 242 79 232 c 1
EndSplineSet
EndChar

StartChar: B
Encoding: 66 66 13
Width: 430
VWidth: 0
Flags: HW
HStem: 2 18<100.891 204.646> 5 21G<84.0593 91.0593> 316 54<164.494 199.372> 378 18<281.497 328.059> 649 18<190.746 297.621>
VStem: 78.0593 24<601.339 653.532> 78.0593 14<52.1548 569.6> 349.059 19<506.935 600.982> 414.059 16<205.698 309.876>
LayerCount: 2
Back
Fore
SplineSet
98.05859375 601 m 1x7d80
 109.05859375 624 135.05859375 639 156.05859375 648 c 0
 182.05859375 659 216.05859375 667 249.05859375 667 c 0
 285.05859375 667 320.05859375 657 343.05859375 629 c 0
 361.05859375 607 368.05859375 583 368.05859375 558 c 0
 368.05859375 495 321.05859375 428 280.05859375 392 c 1
 292.05859375 394 303.05859375 396 315.05859375 396 c 2
 328.05859375 395 l 1
 398.05859375 384 430.05859375 326 430.05859375 260 c 0
 430.05859375 238 426.05859375 215 419.05859375 192 c 0
 384.05859375 85 262.05859375 2 152.05859375 2 c 0xbd80
 133.05859375 2 114.05859375 5 96.05859375 10 c 0
 94.05859375 7 92.05859375 5 90.05859375 5 c 0
 78.05859375 5 61.05859375 40 60.05859375 50 c 0
 59.05859375 64 71.05859375 60 75.05859375 52 c 1
 77.05859375 52 l 1
 76.05859375 149 72.05859375 247 72.05859375 345 c 0
 72.05859375 401 73.05859375 458 77.05859375 515 c 0
 78.05859375 527 78.05859375 539 78.05859375 551 c 2
 78.05859375 570 l 2x7b80
 78.05859375 588 78.05859375 606 80.05859375 624 c 0
 81.05859375 634 83.05859375 655 96.05859375 656 c 0
 101.05859375 656 102.05859375 651 102.05859375 644 c 0
 102.05859375 630 96.05859375 608 96.05859375 601 c 1
 98.05859375 601 l 1x7d80
141.05859375 316 m 0
 137.05859375 316 134.05859375 318 134.05859375 322 c 0
 134.05859375 337 195.05859375 365 207.05859375 370 c 0
 264.05859375 393 318.05859375 440 340.05859375 504 c 0
 345.05859375 520 349.05859375 538 349.05859375 556 c 0
 349.05859375 584 340.05859375 611 319.05859375 628 c 0
 300.05859375 643 274.05859375 649 250.05859375 649 c 0
 242.05859375 649 234.05859375 648 226.05859375 647 c 0
 183.05859375 641 130.05859375 627 105.05859375 583 c 0
 94.05859375 564 92.05859375 538 92.05859375 512 c 0
 92.05859375 497 93.05859375 483 93.05859375 470 c 0
 93.05859375 385 91.05859375 300 91.05859375 215 c 0
 91.05859375 173 92.05859375 131 92.05859375 89 c 2
 92.05859375 69 l 2xbb80
 92.05859375 56 93.05859375 41 97.05859375 33 c 0
 103.05859375 23 120.05859375 20 137.05859375 20 c 0
 151.05859375 20 166.05859375 22 174.05859375 23 c 0
 283.05859375 35 414.05859375 121 414.05859375 263 c 0
 414.05859375 319 382.05859375 378 313.05859375 378 c 0
 270.05859375 378 231.05859375 351 192.05859375 334 c 0
 184.05859375 332 155.05859375 316 141.05859375 316 c 0
EndSplineSet
EndChar

StartChar: N
Encoding: 78 78 14
Width: 424
VWidth: 0
Flags: HW
HStem: 647 20G<403 408.5>
VStem: 70 17<0.089447 244.474> 101 20<518.01 657.576> 389 18<45.1294 656.575>
LayerCount: 2
Back
Fore
SplineSet
410 55 m 0
 410 35 410 0 399 0 c 0
 390 0 388 29 378 50 c 0
 305 199 221 319 159 473 c 0
 144 510 123 553 117 592 c 1
 115 592 l 1
 114 520 104 446 99 374 c 0
 91 277 86 176 86 72 c 0
 86 68 87 52 87 36 c 0
 87 18 86 0 79 0 c 0
 70 0 70 31 70 48 c 0
 70 49 70 49 70 50 c 0
 70 54 70 58 70 59 c 0
 70 88 70 117 72 146 c 0
 81 269 86 395 93 518 c 0
 95 552 100 586 101 620 c 0
 101 630 95 639 96 648 c 0
 96 657 124 683 124 658 c 0
 124 649 121 637 121 629 c 0
 121 627 121 626 121 625 c 0
 131 584 150 541 166 502 c 0
 209 391 261 310 324 191 c 0
 345 152 376 86 395 44 c 1
 390 68 389 98 389 128 c 0
 389 164 391 202 391 231 c 0
 391 330 389 428 389 527 c 0
 389 545 388 563 388 582 c 0
 388 601 389 619 392 637 c 0
 393 643 399 667 407 667 c 0
 410 667 414 662 414 657 c 0
 414 648 408 635 407 628 c 0
 405 615 405 601 405 587 c 0
 405 574 405 561 405 548 c 0
 405 516 404 483 404 451 c 0
 404 360 407 269 407 177 c 0
 407 141 410 107 410 71 c 0
 410 68 410 62 410 55 c 0
EndSplineSet
EndChar

StartChar: Z
Encoding: 90 90 15
Width: 435
VWidth: 0
Flags: HW
HStem: 8 16<135.45 436.855> 634 16<90.1457 161.762> 646 17<141.146 422>
LayerCount: 2
Back
Fore
SplineSet
426 660 m 2xa0
 433 660 445 660 445 649 c 0
 445 636 424 619 417 610 c 0
 388 573 360 536 332 498 c 0
 233 362 168 182 90 34 c 1
 174 28 239 25 316 24 c 0
 349 24 381 26 414 26 c 0
 421 26 444 25 437 12 c 0
 434 6 425 10 420 10 c 0
 385 12 350 8 314 8 c 0
 277 8 240 9 203 9 c 0
 187 9 170 8 154 8 c 0
 136 8 118 14 101 14 c 0
 94 14 87 13 80 10 c 0
 73 7 60 1 60 13 c 0
 60 24 75 42 79 50 c 0
 100 87 121 146 140 184 c 0
 184 272 223 362 276 446 c 0
 320 516 375 577 422 644 c 1
 372 644 321 646 271 646 c 0xa0
 236 646 201 645 166 642 c 0
 146 640 127 634 108 634 c 0
 107 634 105 634 104 634 c 0
 98 634 85 638 90 647 c 0
 93 653 103 650 108 650 c 0xc0
 124 650 139 655 155 657 c 0
 191 662 228 663 266 663 c 0
 300 663 335 662 368 661 c 2
 426 660 l 2xa0
EndSplineSet
EndChar

StartChar: nine
Encoding: 57 57 16
Width: 435
VWidth: 0
Flags: HW
HStem: 325 18<115.564 203.008> 649 17<187.743 268.609>
VStem: 60 16<385.05 487.193> 326 16<559.1 598.423> 333 16<2.51542 426.656> 343 32<511.197 611.697>
LayerCount: 2
Back
Fore
SplineSet
336 465 m 1xe8
 312 399 236 325 163 325 c 0
 138 325 107 331 88 349 c 0
 66 370 60 395 60 422 c 0
 60 437 62 453 64 469 c 0
 71 524 93 586 132 627 c 0
 157 652 194 666 230 666 c 0
 282 666 334 632 342 586 c 0
 343 580 345 556 332 559 c 0
 324 561 327 571 326 578 c 0
 319 620 270 649 231 649 c 0
 204 649 177 639 154 622 c 0
 128 602 113 570 100 537 c 0
 89 510 76 467 76 429 c 0
 76 391 89 357 129 347 c 0
 139 344 149 343 159 343 c 0
 245 343 318 441 340 518 c 0
 343 528 343 537 343 547 c 2
 343 569 l 2
 343 582 344 595 351 605 c 0
 361 618 375 615 375 597 c 0xf4
 375 590 373 583 372 578 c 0
 368 548 359 522 357 492 c 0
 350 410 349 328 349 246 c 2
 349 95 l 2xe8
 349 74 349 53 351 33 c 0
 351 30 353 23 353 17 c 0
 353 9 351 2 344 2 c 2
 343 2 l 2xe4
 332 3 335 20 335 28 c 0
 335 55 333 83 333 110 c 0
 333 164 331 218 331 272 c 0
 331 296 332 320 332 345 c 0
 333 373 339 405 339 436 c 0
 339 446 338 456 336 465 c 1xe8
EndSplineSet
EndChar

StartChar: quoteright
Encoding: 8217 8217 17
Width: 170
VWidth: 0
Flags: HW
HStem: 416 180
VStem: 93.024 17<495.002 595.699>
LayerCount: 2
Back
Fore
SplineSet
94.0244140625 596 m 0
 109.024414062 604 110.024414062 565 110.024414062 558 c 0
 109.024414062 520 101.024414062 483 87.0244140625 448 c 0
 83.0244140625 439 79.0244140625 419 69.0244140625 416 c 0
 56.0244140625 412 60.0244140625 428 63.0244140625 434 c 0
 80.0244140625 470 91.0244140625 510 93.0244140625 550 c 0
 93.0244140625 556 90.0244140625 572 90.0244140625 583 c 0
 90.0244140625 589 91.0244140625 594 94.0244140625 596 c 0
EndSplineSet
EndChar

StartChar: dollar
Encoding: 36 36 18
Width: 446
VWidth: 0
Flags: HW
HStem: 520 28<285.333 319.141> 542 10<154 193 212.076 268.572>
VStem: 60 15<415.41 457.458> 195 15<455 535.863 554.986 638.515> 199 16<146.706 351.717 374.176 455> 265 20<441 530 552.071 640.228> 281 16<204 317.833 346.142 393.5> 286 19<81.7599 140 166.098 299> 370 16<213.312 266.755>
LayerCount: 2
Back
Fore
SplineSet
91 193 m 0xad80
 91 196 94 199 98 199 c 0
 107 199 119 185 125 181 c 0
 145 167 172 145 198 145 c 0
 201 145 204 145 207 146 c 0
 203 161 205 180 204 196 c 0
 203 229 201 263 201 296 c 0
 201 305 202 317 202 329 c 0
 202 338 202 346 199 352 c 0
 195 362 174 365 165 367 c 0
 125 377 60 384 60 435 c 0
 60 449 66 463 74 476 c 0
 100 516 146 546 193 552 c 1
 193 576 191 600 190 624 c 0
 190 630 189 647 200 641 c 0
 206 638 206 625 206 619 c 0
 207 598 206 575 211 554 c 1
 269 552 l 1x6d80
 267 560 265 578 265 597 c 0
 265 619 268 641 278 641 c 2
 279 641 l 2
 284 641 285 636 285 630 c 0
 285 623 283 613 283 608 c 0
 283 595 285 581 285 568 c 0
 285 561 285 554 283 548 c 1
 288 547 325 537 325 527 c 0
 325 524 320 520 316 520 c 0
 306 520 292 528 285 530 c 1
 290 487 291 443 293 400 c 2
 293 368 l 2
 293 358 293 349 296 342 c 0
 300 332 317 328 325 322 c 0
 352 303 384 280 386 244 c 2
 386 240 l 2
 386 209 362 181 337 165 c 0
 323 157 301 154 301 132 c 0
 301 121 305 108 305 97 c 0
 305 93 304 89 303 86 c 0
 299 78 290 79 288 88 c 0
 287 95 286 103 286 110 c 0
 286 120 287 130 287 140 c 1
 273 137 260 131 246 129 c 0
 235 127 223 131 223 114 c 0
 223 109 224 103 224 98 c 0
 224 91 222 85 216 85 c 2
 215 85 l 2
 208 86 207 93 207 101 c 2
 207 112 l 2
 207 117 207 122 204 125 c 0
 197 132 180 131 171 134 c 0
 149 142 129 156 111 170 c 0
 107 173 91 185 91 193 c 0xad80
228 542 m 0
 215 542 210 539 210 525 c 0x7080
 210 516 212 505 212 500 c 0
 212 469 214 439 215 408 c 0
 215 402 214 394 214 386 c 0
 214 380 214 374 217 371 c 0
 226 359 265 350 279 346 c 1
 269 536 l 1
 260 537 242 542 228 542 c 0
199 374 m 1x2880
 195 536 l 1x3080
 154 531 113 504 90 470 c 0
 83 459 75 447 75 434 c 0
 75 409 100 403 117 397 c 0
 144 388 172 380 199 374 c 1x2880
215 352 m 1x2a80
 217 282 219 212 221 142 c 1
 237 145 276 144 285 159 c 0
 287 162 287 166 287 170 c 0
 287 179 285 190 285 196 c 0x2c80
 285 228 284 262 281 294 c 2
 281 312 l 2
 281 318 281 323 278 327 c 0
 267 340 232 349 215 352 c 1x2a80
297 318 m 1x2280
 301 166 l 1
 332 174 370 205 370 240 c 2
 370 244 l 2
 367 277 327 309 297 318 c 1x2280
EndSplineSet
EndChar

StartChar: greater
Encoding: 62 62 19
Width: 359
VWidth: 0
Flags: HW
VStem: 61.7443 237
LayerCount: 2
Back
Fore
SplineSet
278.744140625 394 m 1
 257.744140625 400 239.744140625 415 220.744140625 425 c 0
 183.744140625 445 144.744140625 462 108.744140625 485 c 0
 93.744140625 494 77.744140625 501 63.744140625 509 c 0
 59.744140625 511 58.744140625 516 61.744140625 519 c 0
 64.744140625 523 68.744140625 524 72.744140625 524 c 0
 88.744140625 524 109.744140625 505 118.744140625 499 c 0
 161.744140625 471 210.744140625 453 254.744140625 426 c 0
 265.744140625 419 294.744140625 409 298.744140625 396 c 1
 298.744140625 394 l 2
 298.744140625 379 260.744140625 353 252.744140625 344 c 0
 217.744140625 307 182.744140625 270 149.744140625 232 c 0
 141.744140625 222 123.744140625 192 110.744140625 190 c 0
 95.744140625 188 107.744140625 208 110.744140625 212 c 0
 125.744140625 232 142.744140625 250 158.744140625 268 c 0
 173.744140625 285 188.744140625 302 204.744140625 318 c 0
 228.744140625 343 257.744140625 367 278.744140625 394 c 1
EndSplineSet
EndChar

StartChar: h
Encoding: 104 104 20
Width: 355
VWidth: 0
Flags: HW
HStem: 355 17<167.295 237.53>
VStem: 40 19<2.94531 186.017> 59 17<327.734 576.639> 299 16<59.5598 259.162>
LayerCount: 2
Back
Fore
SplineSet
208 363 m 4xb0
 295 363 315 261 315 173 c 0
 315 118 316 51 306 3 c 0
 303 -2 301 -5 298 -5 c 0
 296 -5 293 -2 291 5 c 0
 299 50 299 121 299 166 c 0
 299 225 294 286 266 322 c 0
 248 345 226 346 204 346 c 4
 169 346 132 331 108 300 c 0
 65 246 67 188 63 123 c 0
 62 99 59 76 59 52 c 0
 59 46 68 1 47 1 c 0
 40 1 40 23 40 40 c 0xd0
 40 55 41 68 41 72 c 0
 41 93 45 106 45 127 c 0
 45 138 47 156 48 167 c 0
 56 268 54 376 59 480 c 1
 59 554 l 2
 59 561 60 576 69 577 c 2
 70 577 l 2
 76 577 77 569 77 560 c 0
 77 551 76 542 76 538 c 0
 75 495 73 451 73 408 c 0
 73 377 67 342 67 309 c 0
 67 296 68 282 71 270 c 1
 76 291 94 311 109 326 c 0
 136 352 173 363 208 363 c 4xb0
EndSplineSet
EndChar

StartChar: u
Encoding: 117 117 21
Width: 372
VWidth: 0
Flags: HW
HStem: 341 20G<307.5 319.5>
VStem: 40 17<177.754 349.678> 316 16<156.818 343.324>
LayerCount: 2
Back
Fore
SplineSet
49 350 m 0
 55 352 60 348 60 342 c 0
 59 320 57 297 57 274 c 0
 57 219 61 153 79 101 c 4
 88 73 109 19 140 12 c 4
 198 -2 268 60 295 113 c 4
 314 150 316 202 316 248 c 0
 316 277 315 313 310 336 c 0
 309 342 301 361 314 361 c 0
 325 361 327 338 328 330 c 0
 331 312 332 288 332 264 c 0
 332 244 331 224 331 208 c 0
 327 113 282 9 185 -6 c 4
 179 -7 172 -8 166 -8 c 4
 52 -8 51 158 42 238 c 0
 41 250 40 262 40 274 c 0
 40 290 41 306 41 322 c 0
 41 330 39 347 49 350 c 0
EndSplineSet
EndChar

StartChar: R
Encoding: 82 82 22
Width: 431
VWidth: 0
Flags: HW
HStem: 333 18<109.339 147.803> 654 16<122.499 258.996>
VStem: 72.7147 16<31.5606 329.367> 85.7147 16<318.633 601.758> 384.715 16<478.334 565.202>
LayerCount: 2
Back
Fore
SplineSet
384.713867188 523 m 0xc8
 384.713867188 622 279.713867188 654 191.713867188 654 c 0
 171.713867188 654 152.713867188 652 136.713867188 649 c 0
 122.713867188 646 107.713867188 644 94.7138671875 638 c 0
 89.7138671875 635 86.7138671875 629 80.7138671875 627 c 0
 70.7138671875 624 67.7138671875 636 71.7138671875 642 c 0
 78.7138671875 654 97.7138671875 658 110.713867188 661 c 0
 135.713867188 666 161.713867188 670 186.713867188 670 c 2
 209.713867188 669 l 2
 266.713867188 665 330.713867188 650 371.713867188 607 c 0
 392.713867188 585 400.713867188 556 400.713867188 527 c 0
 400.713867188 474 372.713867188 419 334.713867188 389 c 0
 303.713867188 364 263.713867188 349 224.713867188 341 c 0
 206.713867188 337 183.713867188 337 166.713867188 330 c 1
 191.713867188 324 218.713867188 303 240.713867188 289 c 0
 311.713867188 244 366.713867188 192 402.713867188 114 c 0
 413.713867188 89 424.713867188 56 434.713867188 31 c 0
 437.713867188 25 445.713867188 10 436.713867188 5 c 0
 427.713867188 0 422.713867188 15 420.713867188 21 c 0
 411.713867188 44 402.713867188 74 392.713867188 96 c 0
 351.713867188 189 284.713867188 244 198.713867188 295 c 0
 176.713867188 308 152.713867188 323 128.713867188 333 c 0
 121.713867188 336 106.713867188 337 107.713867188 348 c 0
 108.713867188 358 124.713867188 353 130.713867188 351 c 0
 139.713867188 349 148.713867188 348 157.713867188 348 c 0
 178.713867188 348 200.713867188 353 220.713867188 357 c 0
 302.713867188 375 384.713867188 432 384.713867188 523 c 0xc8
91.7138671875 602 m 0
 103.713867188 609 101.713867188 586 101.713867188 580 c 0xd8
 100.713867188 552 99.7138671875 524 99.7138671875 496 c 0
 99.7138671875 381 90.7138671875 267 90.7138671875 152 c 0
 90.7138671875 119 88.7138671875 67 88.7138671875 34 c 0
 88.7138671875 27 92.7138671875 5 82.7138671875 2 c 0
 68.7138671875 -2 72.7138671875 23 72.7138671875 30 c 0xe8
 72.7138671875 63 74.7138671875 115 74.7138671875 148 c 0
 74.7138671875 262 82.7138671875 376 83.7138671875 490 c 0
 83.7138671875 518 84.7138671875 545 85.7138671875 573 c 0xd8
 85.7138671875 581 83.7138671875 597 91.7138671875 602 c 0
EndSplineSet
EndChar

StartChar: P
Encoding: 80 80 23
Width: 377
VWidth: 0
Flags: HW
HStem: 5 21G<86.5 93.5> 318 16<71.1414 90 106 221.955> 658 16<122.446 206.76>
VStem: 82 16<5.00654 251.153> 90 16<135.847 318 334 627.109> 98 16<571.891 645.812> 360 17<438.116 538.785>
LayerCount: 2
Back
Fore
SplineSet
90 334 m 1xea
 97 413 93 492 96 571 c 0
 97 590 98 609 98 628 c 0xe6
 98 632 97 638 97 643 c 0
 97 647 98 652 100 655 c 0
 110 670 136 674 157 674 c 0
 163 674 169 674 174 673 c 0
 240 664 301 631 346 582 c 0
 367 559 377 526 377 492 c 0
 377 439 353 384 312 358 c 0
 252 321 174 318 106 318 c 1xea
 106 247 100 140 100 69 c 0
 100 52 99 34 98 17 c 0xf2
 98 12 97 5 90 5 c 0xea
 83 5 82 14 82 19 c 0xf2
 82 36 84 52 84 69 c 0
 84 140 90 247 90 318 c 1
 77 319 70 325 70 329 c 0
 70 332 74 335 81 335 c 0
 83 335 87 335 90 334 c 1xea
106 334 m 1xea
 112 334 118 334 124 334 c 0
 184 334 253 339 304 372 c 0
 340 396 360 443 360 490 c 0
 360 519 352 547 336 568 c 0
 301 612 236 649 180 656 c 0
 172 657 162 658 152 658 c 0
 139 658 126 656 118 646 c 0
 115 642 114 637 114 632 c 0
 114 630 114 627 114 625 c 0
 114 623 114 622 114 620 c 0xe6
 113 599 112 579 112 558 c 0
 112 483 109 408 106 334 c 1xea
EndSplineSet
EndChar

StartChar: zero
Encoding: 48 48 24
Width: 450
VWidth: 0
Flags: HW
HStem: 18 16<174.675 247.278> 654 15<196.443 221.273>
VStem: 60 14<197.449 358.59> 374 16<222.728 423.323>
LayerCount: 2
Back
Fore
SplineSet
203 654 m 0
 193 659 194 669 207 669 c 0
 221 669 244 658 254 653 c 0
 335 616 367 525 383 428 c 0
 387 403 388 379 389 353 c 0
 389 343 390 333 390 323 c 0
 390 202 364 49 228 20 c 0
 220 18 213 18 206 18 c 0
 140 18 101 86 79 142 c 0
 63 184 60 229 60 279 c 0
 60 358 78 443 106 516 c 0
 120 553 151 614 192 628 c 0
 198 630 221 629 215 618 c 0
 211 611 193 613 186 608 c 0
 169 596 154 574 143 556 c 0
 123 524 111 487 101 451 c 0
 85 395 74 335 74 276 c 0
 74 244 77 213 84 182 c 0
 97 119 138 34 209 34 c 0
 218 34 227 35 237 38 c 0
 298 56 334 109 354 166 c 0
 371 215 374 264 374 322 c 0
 374 392 363 457 343 525 c 0
 332 562 299 609 266 629 c 0
 246 641 223 644 203 654 c 0
EndSplineSet
EndChar

StartChar: question
Encoding: 63 63 25
Width: 351
VWidth: 0
Flags: HW
HStem: 655 17<204.268 266.802>
VStem: 60.4375 17<508.1 541.125> 165.438 17<304.477 346.381> 176.438 24<67.0534 105.371> 277.438 14<582.112 642.51>
LayerCount: 2
Back
Fore
SplineSet
277.4375 620 m 0xe8
 277.4375 642 263.4375 655 242.4375 655 c 0
 231.4375 655 220.4375 652 210.4375 649 c 0
 161.4375 633 126.4375 598 95.4375 558 c 0
 82.4375 542 83.4375 529 77.4375 512 c 0
 76.4375 509 72.4375 507 68.4375 508 c 0
 59.4375 510 59.4375 521 60.4375 528 c 0
 63.4375 546 76.4375 562 87.4375 576 c 0
 123.4375 625 174.4375 662 235.4375 671 c 0
 239.4375 672 242.4375 672 245.4375 672 c 0
 279.4375 672 291.4375 646 291.4375 616 c 0
 291.4375 609 290.4375 603 289.4375 596 c 0
 278.4375 523 239.4375 452 208.4375 386 c 0
 198.4375 365 188.4375 344 182.4375 322 c 0
 180.4375 316 179.4375 303 170.4375 304 c 0
 166.4375 304 165.4375 308 165.4375 314 c 0
 165.4375 333 185.4375 378 188.4375 384 c 0
 216.4375 445 248.4375 507 267.4375 572 c 0
 271.4375 585 277.4375 603 277.4375 620 c 0xe8
190.4375 106 m 2
 191.4375 106 l 2
 197.4375 106 200.4375 97 200.4375 88 c 0
 200.4375 78 197.4375 68 190.4375 67 c 2
 188.4375 67 l 2
 180.4375 67 176.4375 75 176.4375 83 c 0xd8
 176.4375 93 181.4375 104 190.4375 106 c 2
EndSplineSet
EndChar

StartChar: quotedbl
Encoding: 34 34 26
Width: 247
VWidth: 0
Flags: HW
HStem: 511 153
VStem: 61 18<511.167 649.718> 171 16<525.754 641.009>
LayerCount: 2
Back
Fore
SplineSet
79 525 m 0
 79 517 78 511 71 511 c 0
 61 511 61 537 61 542 c 2
 61 633 l 2
 61 637 60 644 60 650 c 0
 60 656 61 662 65 664 c 0
 79 673 75 646 75 640 c 0
 75 609 77 580 77 549 c 0
 77 544 79 534 79 525 c 0
187 575 m 0
 187 561 186 521 172 521 c 0
 160 521 167 539 168 545 c 0
 170 555 171 565 171 574 c 0
 171 593 168 610 164 628 c 0
 163 635 161 648 172 648 c 0
 181 648 181 629 182 622 c 0
 185 606 187 591 187 575 c 0
EndSplineSet
EndChar

StartChar: percent
Encoding: 37 37 27
Width: 363
VWidth: 0
Flags: HW
VStem: 79.504 36<411.413 480.575> 79.504 15<434.117 451.837> 255.504 17<220.03 235.013>
LayerCount: 2
Back
Fore
SplineSet
294.50390625 556 m 0x20
 303.50390625 559 304.50390625 549 301.50390625 543 c 0
 288.50390625 519 276.50390625 494 264.50390625 470 c 0
 221.50390625 384 174.50390625 300 126.50390625 216 c 0
 112.50390625 192 100.50390625 168 86.50390625 144 c 0
 82.50390625 137 75.50390625 122 66.50390625 122 c 0
 53.50390625 122 63.50390625 139 66.50390625 144 c 0
 81.50390625 168 94.50390625 193 108.50390625 218 c 0
 167.50390625 320 224.50390625 424 276.50390625 532 c 0
 280.50390625 540 285.50390625 553 294.50390625 556 c 0x20
79.50390625 440 m 0xa0
 79.50390625 457 85.50390625 481 100.50390625 481 c 0
 109.50390625 481 115.50390625 465 115.50390625 448 c 0
 115.50390625 432 109.50390625 415 96.50390625 411 c 0
 95.50390625 411 94.50390625 410 93.50390625 410 c 0
 83.50390625 410 79.50390625 424 79.50390625 440 c 0xa0
96.50390625 452 m 1
 94.50390625 434 l 1x60
 96.50390625 434 l 1
 100.50390625 452 l 1
 96.50390625 452 l 1
284.50390625 252 m 1
 295.50390625 250 299.50390625 242 299.50390625 233 c 0
 299.50390625 220 290.50390625 205 276.50390625 204 c 2
 274.50390625 204 l 2
 261.50390625 204 255.50390625 214 255.50390625 226 c 0
 255.50390625 243 265.50390625 264 278.50390625 268 c 0
 291.50390625 272 290.50390625 258 284.50390625 252 c 1
272.50390625 220 m 1
 284.50390625 234 l 1
 282.50390625 236 l 1
 275.50390625 232 272.50390625 228 272.50390625 220 c 1
EndSplineSet
EndChar

StartChar: bracketleft
Encoding: 91 91 28
Width: 319
VWidth: 0
Flags: HW
HStem: 8 17<93.2378 198.185> 17 17<114.112 256.165> 648 17<140.787 206.968>
VStem: 60 16<333.312 647.92> 69 16<33.6402 352.688>
LayerCount: 2
Back
Fore
SplineSet
83 678 m 0x70
 109 688 150 668 177 665 c 0
 178 665 179 665 180 665 c 0
 183 665 187 665 191 665 c 0
 199 665 207 664 207 657 c 0
 207 650 196 648 187 648 c 0
 158 648 135 658 108 662 c 0
 96 664 85 663 82 649 c 0
 76 626 75 601 75 575 c 0
 75 554 76 534 76 515 c 0x70
 76 413 85 311 85 209 c 0
 85 191 85 173 85 155 c 0
 85 128 85 100 89 73 c 0
 92 57 84 25 107 25 c 0xa8
 114 25 122 27 127 27 c 0
 160 29 195 30 228 34 c 0
 233 35 272 35 254 22 c 0
 248 18 236 17 226 17 c 0
 220 17 215 17 211 17 c 0x68
 181 16 150 13 120 10 c 0
 114 10 107 8 100 8 c 0xa8
 92 8 84 10 80 17 c 0
 73 30 74 51 73 65 c 0
 70 102 69 138 69 175 c 0x68
 69 284 60 391 60 500 c 0
 60 544 62 588 64 632 c 0
 65 648 65 671 83 678 c 0x70
EndSplineSet
EndChar

StartChar: o
Encoding: 111 111 29
Width: 398
VWidth: 0
Flags: HW
HStem: 8 19<137.593 226.244> 340 16<108.331 116.049 133.843 149.953>
VStem: 40.049 18<98.8513 201.064> 339.049 19<139.238 218.244>
LayerCount: 2
Back
Fore
SplineSet
116.049804688 352 m 1
 109.049804688 352 83.0498046875 354 95.0498046875 367 c 0
 98.0498046875 370 103.049804688 371 108.049804688 371 c 0
 114.049804688 371 121.049804688 370 126.049804688 370 c 2
 128.049804688 370 l 2
 137.049804688 371 153.049804688 381 163.049804688 381 c 0
 169.049804688 381 172.049804688 378 172.049804688 369 c 0
 172.049804688 367 172.049804688 365 172.049804688 363 c 2
 179.049804688 363 l 2
 218.049804688 363 264.049804688 319 289.049804688 295 c 0
 314.049804688 273 341.049804688 244 353.049804688 213 c 0
 357.049804688 203 358.049804688 192 358.049804688 182 c 0
 358.049804688 147 340.049804688 113 319.049804688 87 c 0
 291.049804688 52 247.049804688 10 200.049804688 2 c 0
 195.049804688 1 190.049804688 1 185.049804688 1 c 0
 141.049804688 1 89.0498046875 36 64.0498046875 67 c 0
 50.0498046875 85 46.0498046875 106 42.0498046875 128 c 0
 41.0498046875 135 40.0498046875 143 40.0498046875 151 c 0
 40.0498046875 172 39.0498046875 199 46.0498046875 219 c 0
 60.0498046875 265 88.0498046875 322 116.049804688 352 c 1
142.049804688 352 m 0
 124.049804688 343 99.0498046875 299 90.0498046875 282 c 0
 69.0498046875 242 58.0498046875 192 58.0498046875 147 c 0
 58.0498046875 129 61.0498046875 111 69.0498046875 94 c 0
 85.0498046875 56 139.049804688 20 186.049804688 20 c 0
 200.049804688 20 213.049804688 22 224.049804688 28 c 0
 274.049804688 53 339.049804688 118 339.049804688 179 c 0
 339.049804688 188 338.049804688 196 335.049804688 205 c 0
 317.049804688 260 257.049804688 319 203.049804688 339 c 0
 191.049804688 342 167.049804688 354 151.049804688 354 c 0
 148.049804688 354 144.049804688 353 142.049804688 352 c 0
EndSplineSet
EndChar

StartChar: k
Encoding: 107 107 30
Width: 324
VWidth: 0
Flags: HW
VStem: 47 15<354.766 582.942> 52 16<16.2979 298 352 527.234>
LayerCount: 2
Back
Fore
SplineSet
229 445 m 0x80
 233 445 235 443 235 439 c 0
 235 427 206 413 200 409 c 0
 158 383 110 354 64 334 c 1
 71 309 98 286 114 266 c 0
 170 195 233 107 288 35 c 0
 293 29 303 21 304 13 c 0
 305 1 292 7 287 11 c 0
 271 26 258 44 244 61 c 4
 202 113 157 186 115 238 c 0
 100 257 79 276 68 298 c 1
 66 298 l 1
 66 261 68 223 68 186 c 0x40
 68 148 69 75 69 37 c 0
 69 34 70 28 70 21 c 0
 70 12 69 4 62 4 c 0x80
 52 4 53 21 53 27 c 0
 52 52 52 111 52 136 c 0
 52 158 52 180 52 202 c 0x40
 52 235 52 269 50 302 c 0
 49 312 40 319 40 328 c 0
 40 336 47 343 48 352 c 0
 48 360 49 369 49 377 c 0
 49 402 47 428 47 453 c 0
 47 485 46 518 46 550 c 0
 46 554 45 560 45 566 c 0
 45 574 47 583 54 583 c 0
 61 583 63 568 63 554 c 0
 63 544 62 533 62 530 c 0
 62 471 64 411 64 352 c 1
 105 379 150 398 192 424 c 0
 198 427 218 445 229 445 c 0x80
EndSplineSet
EndChar

StartChar: w
Encoding: 119 119 31
Width: 490
VWidth: 0
Flags: HW
HStem: 7 16<115.381 166.798 324.923 364.4>
VStem: 40 17<152.543 357.57> 49 16<311.62 366.322> 251 24<150.81 222.241> 433 17<158.284 288.778>
LayerCount: 2
Back
Fore
SplineSet
257 168 m 1xd8
 256 143 246 117 236 94 c 0
 219 54 182 7 139 7 c 0
 126 7 113 11 99 21 c 0
 45 61 45 173 41 243 c 0
 40 254 40 266 40 278 c 0xd8
 40 292 40 306 42 320 c 0
 43 329 43 356 49 363 c 0
 55 369 65 367 65 358 c 0xb8
 65 349 60 329 59 323 c 0
 57 313 57 304 57 294 c 2
 57 274 l 2
 57 208 62 139 83 76 c 0
 92 51 112 23 140 23 c 0
 144 23 149 24 153 25 c 0
 207 40 230 117 241 165 c 0
 244 180 248 195 251 210 c 0
 252 215 254 224 261 223 c 0
 275 221 274 185 275 174 c 0
 278 139 292 103 305 70 c 0
 314 48 326 19 342 19 c 2
 344 19 l 2
 373 22 399 85 410 108 c 0
 427 143 433 192 433 236 c 0
 433 287 412 318 396 354 c 0
 393 361 396 373 405 368 c 0
 422 359 436 310 442 292 c 0
 448 274 450 254 450 233 c 0
 450 176 435 116 411 74 c 0
 397 50 365 2 339 2 c 0
 317 2 297 48 286 68 c 0
 267 100 270 135 257 168 c 1xd8
EndSplineSet
EndChar

StartChar: D
Encoding: 68 68 32
Width: 390
VWidth: 0
Flags: HW
HStem: 646 17<83.7343 154.346>
VStem: 66.4616 13<448.599 638> 78.4616 16<29.2813 369.571> 364.462 16<259.77 407.763>
LayerCount: 2
Back
Fore
SplineSet
75.4619140625 29 m 1xd0
 74.4619140625 35 74.4619140625 41 74.4619140625 48 c 0
 74.4619140625 73 78.4619140625 99 78.4619140625 125 c 0
 78.4619140625 131 78.4619140625 137 78.4619140625 143 c 0xb0
 78.4619140625 191 75.4619140625 239 75.4619140625 287 c 0
 74.4619140625 372 69.4619140625 457 66.4619140625 542 c 0
 65.4619140625 565 64.4619140625 588 62.4619140625 610 c 0
 61.4619140625 619 57.4619140625 629 62.4619140625 637 c 0
 73.4619140625 657 94.4619140625 663 115.461914062 663 c 0
 124.461914062 663 133.461914062 662 142.461914062 660 c 0
 202.461914062 645 264.461914062 606 304.461914062 558 c 0
 357.461914062 495 380.461914062 417 380.461914062 338 c 0
 380.461914062 283 369.461914062 228 349.461914062 176 c 0
 331.461914062 129 309.461914062 82 268.461914062 51 c 0
 213.461914062 9 153.461914062 14 89.4619140625 10 c 1
 97.4619140625 -18 72.4619140625 -19 75.4619140625 10 c 1
 63.4619140625 15 61.4619140625 26 75.4619140625 29 c 1xd0
83.4619140625 638 m 1
 79.4619140625 613 l 1xd0
 85.4619140625 473 89.4619140625 332 94.4619140625 192 c 1
 91.4619140625 27 l 1
 149.461914062 27 206.461914062 27 256.461914062 62 c 0
 295.461914062 90 315.461914062 134 332.461914062 178 c 0
 352.461914062 230 364.461914062 282 364.461914062 335 c 0
 364.461914062 393 350.461914062 450 320.461914062 505 c 0
 287.461914062 565 230.461914062 609 168.461914062 633 c 0
 150.461914062 639 132.461914062 646 114.461914062 646 c 0
 104.461914062 646 94.4619140625 644 83.4619140625 638 c 1
EndSplineSet
EndChar

StartChar: Q
Encoding: 81 81 33
Width: 569
VWidth: 0
Flags: HW
HStem: 7 16<264.915 372.522> 50 27<428.294 456.965> 651 19<264.827 371.33>
VStem: 545 14<266.541 400.073>
LayerCount: 2
Back
Fore
SplineSet
238 636 m 1
 214 627 194 613 172 600 c 0
 167 597 154 591 154 602 c 0
 154 616 190 631 200 637 c 0
 232 656 276 670 318 670 c 0
 342 670 366 665 386 654 c 0
 501 592 559 462 559 332 c 0
 559 231 524 130 454 60 c 1
 471 48 487 35 504 24 c 0
 509 21 520 16 518 8 c 0
 515 -3 501 6 496 9 c 0
 478 20 456 33 444 50 c 1
 442 50 l 1
 414 19 370 7 324 7 c 0
 271 7 215 24 180 49 c 0
 154 68 134 94 116 120 c 0
 83 167 70 220 70 274 c 0
 70 361 105 452 148 524 c 0
 170 562 197 614 238 634 c 1
 238 636 l 1
264 648 m 1
 264 646 l 1
 270 646 295 639 280 631 c 0
 265 623 249 625 234 613 c 0
 197 583 169 534 149 492 c 0
 100 392 69 298 100 188 c 0
 127 93 223 23 319 23 c 0
 358 23 396 34 430 60 c 1
 416 80 396 100 378 116 c 0
 374 120 358 129 364 136 c 0
 371 145 385 129 390 124 c 0
 402 113 425 77 444 77 c 0
 448 77 451 79 454 82 c 0
 471 100 482 123 494 144 c 0
 526 201 545 269 545 336 c 0
 545 403 526 450 504 498 c 0
 478 557 436 617 374 642 c 0
 357 649 340 651 323 651 c 0
 304 651 284 649 264 648 c 1
EndSplineSet
EndChar

StartChar: one
Encoding: 49 49 34
Width: 272
VWidth: 0
Flags: HW
VStem: 181 17<22.052 237.111> 189 17<165.359 628.405>
LayerCount: 2
Back
Fore
SplineSet
200 650 m 0x40
 208 650 212 642 212 633 c 0
 212 625 210 616 209 610 c 0
 207 580 205 550 205 520 c 0
 205 446 206 370 206 294 c 0x40
 206 213 205 132 198 56 c 1
 198 39 l 2
 198 31 197 23 191 22 c 2
 190 22 l 2
 183 22 181 31 181 39 c 0x80
 181 45 182 50 182 53 c 0
 183 89 187 125 187 161 c 0
 187 254 189 347 189 440 c 0
 189 468 188 496 188 525 c 0
 188 560 189 596 195 630 c 1
 159 613 128 584 97 560 c 0
 92 556 78 543 68 543 c 0
 65 543 60 546 60 550 c 0
 60 559 84 570 89 575 c 0
 117 597 145 620 175 639 c 0
 181 643 192 650 200 650 c 0x40
EndSplineSet
EndChar

StartChar: colon
Encoding: 58 58 35
Width: 175
VWidth: 0
Flags: HW
HStem: 426 17<93 97.8473>
VStem: 60 31<408.003 424> 67 35<160.257 201.856> 98 17<403.645 425.48>
LayerCount: 2
Back
Fore
SplineSet
60 293 m 4xd0
 60 310 72 338 92 338 c 4
 105 338 115 327 115 314 c 6
 115 313 l 6
 114 295 95 275 74 275 c 4
 64 275 60 283 60 293 c 4xd0
93 321 m 5
 91 319 l 5
 94 307 89 303 77 303 c 5
 73 293 l 5
 75 291 l 5
 87 294 98 303 98 315 c 4
 98 317 98 319 97 321 c 6
 93 321 l 5
91 97 m 5
 99 94 102 87 102 79 c 4
 102 68 95 56 83 55 c 6
 82 55 l 6
 71 55 67 65 67 77 c 4xa0
 67 91 74 108 83 112 c 4
 95 117 94 103 91 97 c 5
EndSplineSet
EndChar

StartChar: quotedblleft
Encoding: 8220 8220 36
Width: 245
VWidth: 0
Flags: HW
HStem: 484 198
VStem: 141 37<488.219 521.191> 141 17<511.155 575.071>
LayerCount: 2
Back
Fore
SplineSet
178 490 m 0xc0
 178 486 172 484 169 484 c 0
 155 484 145 510 143 520 c 0
 142 525 141 531 141 537 c 0
 141 562 151 590 158 612 c 0
 161 621 164 637 173 642 c 0
 179 645 186 641 185 634 c 0
 179 599 158 570 158 533 c 0
 158 531 158 528 158 526 c 0xa0
 159 517 178 499 178 490 c 0xc0
76 567 m 0
 76 559 84 530 71 530 c 0
 60 530 60 555 60 563 c 0
 62 593 70 623 76 652 c 0
 78 661 78 678 87 682 c 0
 103 690 94 661 93 656 c 0
 87 627 78 597 76 567 c 0
EndSplineSet
EndChar

StartChar: ampersand
Encoding: 38 38 37
Width: 539
VWidth: 0
Flags: HW
HStem: 124 16<99.3435 209.019> 687 15<210.168 276.39>
VStem: 60 15<158.172 203.978> 136 14<517.637 615.937> 342 15<528.519 612.256>
LayerCount: 2
Back
Fore
SplineSet
220 370 m 1
 172 418 136 493 136 564 c 0
 136 581 138 598 142 614 c 0
 156 665 202 698 248 698 c 0
 273 698 299 688 320 666 c 0
 346 638 357 605 357 571 c 0
 357 526 338 480 309 444 c 0
 295 426 279 409 264 392 c 0
 258 386 247 376 246 368 c 2
 246 367 l 2
 246 357 261 344 267 336 c 0
 290 306 313 275 340 248 c 1
 347 270 365 296 379 314 c 0
 383 319 400 331 400 316 c 0
 400 309 392 303 388 298 c 0
 379 285 371 270 363 256 c 0
 360 251 351 241 354 235 c 0
 358 225 374 216 382 209 c 0
 405 190 428 172 450 152 c 0
 459 144 477 133 479 120 c 2
 479 118 l 2
 479 114 477 112 475 112 c 0
 467 112 447 132 444 134 c 0
 410 164 371 191 340 224 c 1
 309 163 236 121 168 120 c 0
 165 120 162 120 159 120 c 0
 120 120 60 127 60 173 c 2
 60 180 l 2
 62 202 75 222 86 238 c 0
 103 262 125 281 146 302 c 0
 167 323 193 355 220 368 c 1
 220 370 l 1
234 382 m 1
 276 432 329 474 341 552 c 0
 342 557 342 563 342 568 c 0
 342 626 298 683 244 683 c 0
 229 683 212 679 196 668 c 0
 163 647 150 603 150 564 c 0
 150 522 163 489 180 458 c 0
 193 435 209 394 234 382 c 1
75 173 m 0
 75 139 126 136 152 136 c 0
 227 136 290 171 330 236 c 1
 293 267 257 315 232 356 c 1
 213 348 197 328 182 314 c 0
 151 285 116 257 93 220 c 0
 86 208 75 189 75 173 c 0
EndSplineSet
EndChar

StartChar: bracketright
Encoding: 93 93 38
Width: 283
VWidth: 0
Flags: HW
HStem: 1 16<100.164 187.08> 7 20<77.0088 175.907>
VStem: 199.08 14<87.6641 370> 205.08 18<399.5 636.625>
LayerCount: 2
Back
Fore
SplineSet
205.080078125 635 m 1x90
 167.080078125 643 129.080078125 639 91.080078125 646 c 0
 83.080078125 647 54.080078125 651 61.080078125 665 c 0
 63.080078125 669 68.080078125 670 72.080078125 669 c 0
 88.080078125 664 104.080078125 660 121.080078125 659 c 0
 143.080078125 658 166.080078125 657 188.080078125 655 c 0
 197.080078125 654 209.080078125 653 215.080078125 646 c 0
 222.080078125 639 223.080078125 625 223.080078125 612 c 0x90
 223.080078125 601 222.080078125 590 222.080078125 582 c 0
 222.080078125 460 215.080078125 339 213.080078125 217 c 0xa0
 212.080078125 167 210.080078125 119 205.080078125 69 c 0
 205.080078125 65 204.080078125 61 204.080078125 56 c 0
 204.080078125 50 205.080078125 43 205.080078125 36 c 0
 205.080078125 27 204.080078125 18 202.080078125 11 c 0
 199.080078125 1 186.080078125 1 177.080078125 1 c 0x90
 152.080078125 1 125.080078125 1 101.080078125 7 c 0
 94.080078125 9 76.080078125 12 75.080078125 21 c 0
 74.080078125 31 88.080078125 29 93.080078125 27 c 0x50
 123.080078125 17 156.080078125 17 187.080078125 17 c 1
 195.080078125 129 l 1
 199.080078125 277 l 1xa0
 206.080078125 494 l 1
 205.080078125 635 l 1x90
EndSplineSet
EndChar

StartChar: d
Encoding: 100 100 39
Width: 362
VWidth: 0
Flags: HW
HStem: 9 16<90.3516 147.82> 350 14<159.65 225.793>
VStem: 30 18<80.0266 211.927> 261 22<337.219 553.726> 271 23<172.301 238.743> 306 20<18.5697 80.1691 318.92 565.092>
LayerCount: 2
Back
Fore
SplineSet
267 336 m 1xec
 263 362 261 389 261 417 c 0xf4
 261 459 265 500 269 539 c 0
 270 550 279 591 295 591 c 0
 299 591 304 588 309 582 c 0
 328 559 323 515 325 488 c 0
 326 473 326 458 326 443 c 0
 326 401 323 359 316 318 c 0
 312 293 311 266 306 241 c 0
 304 231 294 226 294 216 c 0
 297 164 311 108 321 58 c 0
 322 52 332 30 332 18 c 0
 332 13 330 10 325 10 c 0
 309 10 306 40 304 49 c 0
 294 92 296 142 278 182 c 1
 272 149 248 115 228 87 c 0
 215 68 199 50 181 36 c 0
 163 22 145 9 117 9 c 0
 73 9 44 50 37 87 c 0
 33 109 30 131 30 152 c 0
 30 210 48 266 90 313 c 0
 119 344 157 364 195 364 c 0
 220 364 245 356 267 336 c 1xec
294 569 m 1xec
 284 537 282 501 282 466 c 0
 282 438 283 411 283 386 c 2
 283 357 l 2xf4
 283 337 284 316 292 299 c 1
 294 299 l 1
 302 352 306 406 306 460 c 2
 306 492 l 2
 305 515 308 549 294 569 c 1xec
195 350 m 2
 155 349 126 328 103 301 c 0
 62 253 48 199 48 140 c 0
 48 136 48 132 48 128 c 0
 50 91 64 26 117 25 c 2
 119 25 l 2
 149 25 178 52 195 72 c 0
 237 122 271 181 271 244 c 2
 271 257 l 2xec
 270 272 271 292 267 306 c 0
 257 330 224 350 197 350 c 2
 195 350 l 2
EndSplineSet
EndChar

StartChar: l
Encoding: 108 108 40
Width: 185
VWidth: 0
Flags: HW
HStem: 6 16<154.964 184.923> 634 20G<80.5 87>
VStem: 60 18<248.745 558.298> 75 16<543.379 653.916>
LayerCount: 2
Back
Fore
SplineSet
75 568 m 0xd0
 75 576 77 583 84 583 c 0
 90 583 91 570 91 563 c 0
 91 562 91 561 91 560 c 0xd0
 90 533 83 471 81 444 c 0
 79 414 78 453 78 419 c 0
 78 318 88 205 107 118 c 0
 113 89 125 52 150 33 c 0
 159 26 168 26 178 22 c 0
 182 21 185 17 185 13 c 0
 185 8 179 6 174 6 c 0
 164 6 150 13 144 17 c 0
 113 35 90 109 82 142 c 0
 65 212 60 288 60 364 c 0xe0
 60 412 62 389 64 435 c 0
 65 464 75 528 75 557 c 0
 75 560 75 564 75 568 c 0xd0
EndSplineSet
EndChar

StartChar: v
Encoding: 118 118 41
Width: 321
VWidth: 0
Flags: HW
VStem: 20.508 278
LayerCount: 2
Back
Fore
SplineSet
152.5078125 33 m 1
 181.5078125 98 197.5078125 203 228.5078125 265 c 0
 242.5078125 293 258.5078125 324 276.5078125 350 c 4
 279.5078125 355 294.5078125 379 300.5078125 364 c 4
 302.5078125 358 297.5078125 351 294.5078125 346 c 4
 284.5078125 331 273.5078125 317 265.5078125 302 c 4
 222.5078125 224 200.5078125 90 166.5078125 21 c 0
 163.5078125 15 161.5078125 3 152.5078125 4 c 0
 143.5078125 5 141.5078125 17 138.5078125 23 c 0
 130.5078125 42 120.5078125 61 113.5078125 81 c 0
 83.5078125 160 59.5078125 276 24.5078125 351 c 0
 22.5078125 356 17.5078125 363 21.5078125 368 c 0
 29.5078125 380 38.5078125 359 41.5078125 353 c 0
 54.5078125 325 65.5078125 296 77.5078125 267 c 0
 105.5078125 201 122.5078125 97 152.5078125 33 c 1
EndSplineSet
EndChar

StartChar: L
Encoding: 76 76 42
Width: 368
VWidth: 0
Flags: HW
HStem: 11 19<100.329 357.948> 644 20G<48.5 55.5>
VStem: 43 17<495.664 663.968> 50 16<389.897 629.336> 80 20<27 208.495>
LayerCount: 2
Back
Fore
SplineSet
80 649 m 4xe8
 80 657 82 664 89 664 c 4
 96 664 97 653 97 644 c 4
 97 639 97 635 97 633 c 4xe8
 98 598 101 533 103 498 c 4
 110 349 100 176 100 27 c 1
 107 29 115 30 123 30 c 0
 137 30 153 28 166 27 c 0
 191 26 215 25 240 25 c 0
 262 25 284 26 305 28 c 0
 310 28 323 30 334 30 c 0
 347 30 358 28 358 21 c 0
 358 12 340 11 324 11 c 0
 319 11 315 11 311 11 c 0
 309 11 306 11 305 11 c 0
 282 9 259 9 236 9 c 2
 140 13 l 2
 137 13 135 13 133 13 c 0
 118 13 105 9 90 8 c 0
 83 8 80 14 80 22 c 0
 80 34 85 49 85 57 c 0
 85 201 91 357 87 494 c 4xd8
 86 529 82 596 81 631 c 4
 81 635 80 642 80 649 c 4xe8
EndSplineSet
EndChar

StartChar: S
Encoding: 83 83 43
Width: 428
VWidth: 0
Flags: HW
HStem: -1 19<179.846 270.429> 649 18<185.316 283.533>
VStem: 108 17<508.87 593.01> 352 16<100.006 181.921>
LayerCount: 2
Back
Fore
SplineSet
162 651 m 0
 185 661 211 667 237 667 c 0
 266 667 296 660 321 641 c 0
 324 639 368 602 350 597 c 0
 344 595 336 601 332 606 c 0
 320 617 308 629 293 636 c 0
 276 645 255 649 234 649 c 0
 182 649 128 622 125 559 c 0
 125 557 125 555 125 553 c 0
 125 518 140 485 156 456 c 0
 183 406 217 364 255 325 c 0
 291 290 330 259 351 210 c 0
 360 188 368 159 368 132 c 0
 368 52 287 -1 222 -1 c 0
 176 -1 132 29 98 63 c 0
 95 67 60 104 60 119 c 0
 60 122 61 124 64 125 c 0
 72 128 80 114 84 108 c 0
 113 67 166 18 226 18 c 0
 262 18 296 34 324 69 c 0
 337 87 352 104 352 135 c 0
 352 168 338 205 322 229 c 0
 291 276 244 307 209 348 c 0
 197 361 186 376 176 390 c 0
 146 431 108 501 108 561 c 0
 108 598 123 631 162 651 c 0
EndSplineSet
EndChar

StartChar: two
Encoding: 50 50 44
Width: 389
VWidth: 0
Flags: HW
HStem: 20 18<76.1096 269.56> 27 18<96.6748 328.868> 643 16<199.811 250.492>
VStem: 274 17<459.706 605.129>
LayerCount: 2
Back
Fore
SplineSet
88 20 m 0xb0
 74 20 61 23 61 39 c 0
 61 52 70 67 75 77 c 0
 92 108 118 165 136 194 c 0
 170 248 201 303 229 360 c 0
 251 405 273 457 274 508 c 0
 274 530 274 552 271 574 c 0
 267 599 264 643 230 643 c 0
 218 643 204 638 194 632 c 0
 151 611 117 572 96 530 c 0
 88 514 83 494 75 478 c 0
 72 472 65 472 62 478 c 0
 61 481 60 484 60 487 c 0
 60 505 77 532 84 544 c 0
 109 587 143 626 188 648 c 0
 200 654 216 659 231 659 c 0
 264 659 275 635 281 612 c 0
 288 587 291 558 291 530 c 0
 291 517 291 504 289 492 c 0
 266 329 134 185 76 38 c 1
 82 38 88 38 94 38 c 0xb0
 151 38 212 43 269 44 c 0
 274 44 289 45 303 45 c 0
 329 45 329 44 329 37 c 0
 329 29 310 27 294 27 c 0x70
 284 27 275 28 272 28 c 0
 220 26 164 29 112 22 c 0
 106 21 97 20 88 20 c 0xb0
EndSplineSet
EndChar

StartChar: semicolon
Encoding: 59 59 45
Width: 168
VWidth: 0
Flags: HW
HStem: 350 34<61.0702 105.607>
VStem: 90.2319 18<-24.3923 74>
LayerCount: 2
Back
Fore
SplineSet
96.2314453125 384 m 0
 106.231445312 386 109.231445312 376 106.231445312 368 c 0
 102.231445312 359 92.2314453125 352 82.2314453125 350 c 0
 68.2314453125 348 51.2314453125 359 65.2314453125 373 c 0
 72.2314453125 380 87.2314453125 383 96.2314453125 384 c 0
76.2314453125 95 m 0
 76.2314453125 100 79.2314453125 103 83.2314453125 103 c 0
 95.2314453125 103 101.231445312 74 103.231445312 67 c 0
 106.231445312 53 108.231445312 38 108.231445312 23 c 0
 108.231445312 4 105.231445312 -15 100.231445312 -34 c 0
 97.2314453125 -44 92.2314453125 -63 82.2314453125 -67 c 0
 74.2314453125 -70 70.2314453125 -62 72.2314453125 -56 c 0
 81.2314453125 -25 90.2314453125 0 90.2314453125 30 c 0
 90.2314453125 38 90.2314453125 47 88.2314453125 56 c 0
 86.2314453125 63 76.2314453125 84 76.2314453125 95 c 0
EndSplineSet
EndChar

StartChar: quotedblright
Encoding: 8221 8221 46
Width: 247
VWidth: 0
Flags: HW
HStem: 532 128
VStem: 60 22<532.928 625.805> 171 15<535.776 659.328>
LayerCount: 2
Back
Fore
SplineSet
64 597 m 0
 64 607 59 622 68 626 c 0
 80 631 82 606 82 595 c 0
 82 580 79 565 77 550 c 0
 76 544 76 534 69 532 c 0
 61 530 60 539 60 545 c 0
 61 563 64 580 64 597 c 0
174 660 m 0
 186 662 186 640 186 633 c 0
 188 606 186 581 182 554 c 0
 181 547 181 531 172 530 c 0
 161 529 164 546 165 552 c 0
 168 573 171 593 171 614 c 0
 171 620 170 626 170 632 c 0
 169 639 164 659 174 660 c 0
EndSplineSet
EndChar

StartChar: parenleft
Encoding: 40 40 47
Width: 234
VWidth: 0
Flags: HW
VStem: 60 17<171.362 425.764>
LayerCount: 2
Back
Fore
SplineSet
165 5 m 0
 165 1 160 -1 155 -1 c 0
 141 -1 122 18 116 26 c 0
 86 62 75 121 69 167 c 0
 63 209 60 252 60 296 c 0
 60 401 77 509 105 608 c 0
 115 641 123 674 138 706 c 0
 143 717 151 736 162 742 c 0
 169 746 176 739 174 732 c 0
 171 721 159 711 154 700 c 0
 141 672 132 643 124 614 c 0
 95 513 77 403 77 295 c 0
 77 254 80 213 85 174 c 0
 91 127 100 61 137 28 c 0
 141 25 165 13 165 5 c 0
EndSplineSet
EndChar

StartChar: asciicircum
Encoding: 94 94 48
Width: 362
VWidth: 0
Flags: HW
HStem: 650 20G<166.548 180.548>
VStem: 60.0477 242
LayerCount: 2
Back
Fore
SplineSet
302.047851562 544 m 0
 302.047851562 540 299.047851562 537 296.047851562 537 c 0
 286.047851562 537 271.047851562 557 267.047851562 561 c 0
 236.047851562 592 207.047851562 625 175.047851562 655 c 1
 155.047851562 623 132.047851562 593 110.047851562 561 c 0
 101.047851562 548 92.0478515625 531 79.0478515625 522 c 0
 74.0478515625 518 59.0478515625 515 60.0478515625 526 c 0
 61.0478515625 535 81.0478515625 549 87.0478515625 557 c 0
 107.047851562 584 126.047851562 613 144.047851562 641 c 0
 150.047851562 651 160.047851562 669 173.047851562 670 c 2
 174.047851562 670 l 2
 187.047851562 670 197.047851562 657 206.047851562 648 c 0
 230.047851562 624 253.047851562 599 277.047851562 575 c 0
 282.047851562 570 302.047851562 554 302.047851562 544 c 0
EndSplineSet
EndChar

StartChar: p
Encoding: 112 112 49
Width: 386
VWidth: 0
Flags: HW
HStem: 12 16<151.648 247.964> 347 15<132.848 225.172>
VStem: 60 18<-160.061 35 47 206.188 224.75 300.756> 67 15<-197.328 -10.7621 48.5496 270.296> 328 18<130.06 254.456>
LayerCount: 2
Back
Fore
SplineSet
346 192 m 0xe8
 346 102 292 12 207 12 c 2
 202 12 l 2
 163 14 116 23 78 35 c 1
 84 -191 l 1
 79 -200 73 -200 68 -191 c 1
 63 -117 60 -48 60 22 c 0xe8
 60 69 61 117 65 167 c 0
 67 186 67 205 67 224 c 0xd8
 67 240 67 256 66 271 c 0
 65 285 58 308 62 321 c 0
 65 332 75 325 78 319 c 1
 80 319 l 1
 88 335 106 344 122 351 c 0
 140 358 161 362 182 362 c 0
 215 362 248 354 274 339 c 0
 324 310 346 251 346 192 c 0xe8
173 347 m 0
 123 347 80 323 80 266 c 0
 80 251 82 237 82 223 c 0xd8
 82 164 78 106 78 47 c 1
 81 48 84 48 87 48 c 0
 98 48 111 44 122 42 c 0
 149 37 179 28 208 28 c 0
 225 28 241 31 256 40 c 0
 308 73 328 128 328 185 c 0
 328 201 327 217 324 233 c 0
 319 260 314 289 292 307 c 0
 266 329 218 347 173 347 c 0
EndSplineSet
EndChar

StartChar: f
Encoding: 102 102 50
Width: 250
VWidth: 0
Flags: HW
HStem: 343 17<0.17897 90.0053> 349 17<5.94077 112.321 129.601 221.659> 659 17<159.787 211.074>
VStem: 107.036 16<7.19258 253.467> 111.036 16<169.637 343.717 365 597.312> 253.036 17<566.094 614.095>
LayerCount: 2
Back
Fore
SplineSet
113.036132812 365 m 1x74
 113.036132812 409 111.036132812 410 111.036132812 448 c 0
 111.036132812 478 112.036132812 451 116.036132812 486 c 0
 120.036132812 525 133.036132812 582 185.036132812 582 c 0
 223.036132812 582 259.036132812 546 265.036132812 510 c 0
 266.036132812 504 270.036132812 491 270.036132812 481 c 0
 270.036132812 477 269.036132812 474 268.036132812 472 c 0
 263.036132812 465 255.036132812 470 253.036132812 476 c 0
 248.036132812 490 250.036132812 506 245.036132812 520 c 0
 237.036132812 541 209.036132812 565 184.036132812 565 c 0
 142.036132812 565 135.036132812 511 132.036132812 481 c 0
 128.036132812 447 127.036132812 475 127.036132812 445 c 0x6c
 127.036132812 408 129.036132812 408 129.036132812 365 c 1
 141.036132812 369 157.036132812 370 172.036132812 370 c 0
 186.036132812 370 199.036132812 369 210.036132812 368 c 0
 216.036132812 368 236.036132812 368 233.036132812 357 c 0
 232.036132812 352 228.036132812 351 222.036132812 351 c 0
 214.036132812 351 203.036132812 354 196.036132812 354 c 0
 178.036132812 354 160.036132812 350 142.036132812 350 c 0
 138.036132812 350 133.036132812 351 129.036132812 351 c 1
 129.036132812 267 123.036132812 161 123.036132812 77 c 0
 123.036132812 64 123.036132812 50 123.036132812 36 c 0
 123.036132812 25 123.036132812 4 115.036132812 4 c 0
 113.036132812 4 111.036132812 5 109.036132812 7 c 0
 104.036132812 11 107.036132812 22 107.036132812 28 c 0
 107.036132812 38 107.036132812 49 107.036132812 60 c 0
 107.036132812 71 107.036132812 82 108.036132812 92 c 0
 112.036132812 146 112.036132812 202 112.036132812 256 c 0
 112.036132812 269 115.036132812 296 115.036132812 318 c 0
 115.036132812 329 114.036132812 338 112.036132812 344 c 0
 109.036132812 351 97.0361328125 349 91.0361328125 349 c 0x74
 69.0361328125 349 47.0361328125 345 25.0361328125 343 c 0
 19.0361328125 342 -0.9638671875 339 0.0361328125 351 c 0
 1.0361328125 361 19.0361328125 359 26.0361328125 360 c 0xb4
 48.0361328125 362 71.0361328125 366 94.0361328125 366 c 0
 100.036132812 366 107.036132812 366 113.036132812 365 c 1x74
EndSplineSet
EndChar

StartChar: x
Encoding: 120 120 51
Width: 335
VWidth: 0
Flags: HW
HStem: 336 20G<60.5 67.5>
VStem: 159 23<191.68 213.667>
LayerCount: 2
Back
Fore
SplineSet
55 349 m 0
 55 353 59 356 62 356 c 0
 73 356 87 336 91 330 c 0
 116 297 152 255 167 216 c 1
 205 249 240 292 273 330 c 0
 280 338 298 369 311 365 c 0
 314 364 315 362 315 360 c 0
 315 349 293 327 289 322 c 0
 263 292 235 265 209 236 c 0
 202 228 182 213 182 201 c 0
 182 187 203 170 210 160 c 0
 232 130 249 97 268 66 c 0
 278 51 293 29 293 7 c 0
 293 2 292 0 290 0 c 0
 282 0 258 48 257 50 c 0
 224 95 203 146 167 188 c 1
 138 142 78 76 47 32 c 0
 43 25 28 -2 16 -2 c 0
 13 -2 10 -1 10 3 c 0
 10 17 51 64 56 70 c 0
 87 113 119 167 159 202 c 1
 159 204 l 1
 126 231 105 282 80 316 c 0
 76 322 55 339 55 349 c 0
EndSplineSet
EndChar

StartChar: E
Encoding: 69 69 52
Width: 410
VWidth: 0
Flags: HW
HStem: 6 20<118.324 197.622> 20 18<175.088 398.034> 336 22<172.981 336.537> 649 17<149.243 399.986>
VStem: 72.0867 17<341.425 639.909> 85.0867 14<72.0029 313.875> 91.0867 15<35.0186 207.624 208.609 223.032>
LayerCount: 2
Back
Fore
SplineSet
132.0859375 661 m 0xb8
 215.0859375 665 297.0859375 666 381.0859375 666 c 0
 386.0859375 666 398.0859375 666 400.0859375 659 c 0
 402.0859375 650 390.0859375 649 384.0859375 649 c 0
 366.0859375 649 348.0859375 649 330.0859375 649 c 0
 250.0859375 649 169.0859375 649 89.0859375 639 c 1xb8
 96.0859375 337 l 1
 157.0859375 348 217.0859375 351 279.0859375 353 c 0
 294.0859375 353 310.0859375 357 325.0859375 358 c 0
 330.0859375 358 338.0859375 356 337.0859375 349 c 0
 335.0859375 333 291.0859375 337 280.0859375 336 c 0
 251.0859375 333 221.0859375 335 192.0859375 333 c 0
 160.0859375 330 128.0859375 322 96.0859375 320 c 1
 99.0859375 306 99.0859375 292 99.0859375 277 c 2
 99.0859375 225 l 2xb4
 100.0859375 183 102.0859375 142 106.0859375 101 c 1
 106.0859375 72 l 2
 106.0859375 55 108.0859375 37 118.0859375 30 c 0
 123.0859375 27 132.0859375 26 141.0859375 26 c 0xb2
 155.0859375 26 170.0859375 28 178.0859375 30 c 0
 205.0859375 36 231.0859375 38 258.0859375 38 c 0
 286.0859375 38 314.0859375 36 344.0859375 36 c 0
 356.0859375 36 369.0859375 36 382.0859375 37 c 0
 387.0859375 37 397.0859375 37 398.0859375 30 c 0
 399.0859375 22 389.0859375 20 383.0859375 20 c 0
 369.0859375 19 356.0859375 19 343.0859375 19 c 0
 316.0859375 19 289.0859375 20 263.0859375 20 c 0x72
 230.0859375 20 198.0859375 18 166.0859375 9 c 0
 159.0859375 7 150.0859375 6 140.0859375 6 c 0
 126.0859375 6 111.0859375 9 103.0859375 18 c 0
 92.0859375 30 91.0859375 51 91.0859375 67 c 2
 91.0859375 75 l 2xb2
 91.0859375 110 87.0859375 148 85.0859375 183 c 0
 85.0859375 191 84.0859375 200 84.0859375 208 c 0
 84.0859375 221 85.0859375 234 85.0859375 247 c 0xb4
 85.0859375 268 84.0859375 290 80.0859375 310 c 0
 79.0859375 316 71.0859375 318 70.0859375 324 c 0
 69.0859375 331 77.0859375 335 78.0859375 341 c 0
 80.0859375 350 78.0859375 363 77.0859375 372 c 0
 74.0859375 421 72.0859375 470 72.0859375 519 c 0
 72.0859375 542 72.0859375 566 73.0859375 589 c 0
 73.0859375 592 73.0859375 595 73.0859375 598 c 0
 73.0859375 610 72.0859375 621 72.0859375 633 c 0
 72.0859375 638 72.0859375 644 73.0859375 649 c 0
 74.0859375 661 120.0859375 661 132.0859375 661 c 0xb8
EndSplineSet
EndChar

StartChar: T
Encoding: 84 84 53
Width: 519
VWidth: 0
Flags: HW
HStem: 645 16<268.435 528.129>
VStem: 283.279 15<335.952 620.403>
LayerCount: 2
Back
Fore
SplineSet
404.279296875 661 m 0
 418.279296875 662 431.279296875 663 445.279296875 663 c 2
 500.279296875 662 l 2
 506.279296875 662 532.279296875 665 528.279296875 652 c 0
 525.279296875 643 509.279296875 646 502.279296875 646 c 0
 474.279296875 646 447.279296875 645 420.279296875 645 c 0
 329.279296875 644 236.279296875 643 145.279296875 635 c 0
 123.279296875 633 101.279296875 633 79.279296875 631 c 0
 73.279296875 630 62.279296875 628 60.279296875 636 c 0
 57.279296875 648 79.279296875 648 86.279296875 648 c 0
 116.279296875 650 147.279296875 650 177.279296875 653 c 0
 207.279296875 656 236.279296875 654 266.279296875 656 c 0
 312.279296875 659 358.279296875 657 404.279296875 661 c 0
283.279296875 421 m 0
 283.279296875 482 280.279296875 538 278.279296875 596 c 0
 278.279296875 603 272.279296875 622 282.279296875 624 c 0
 294.279296875 627 294.279296875 607 294.279296875 600 c 0
 295.279296875 571 296.279296875 541 298.279296875 512 c 0
 305.279296875 391 301.279296875 257 305.279296875 136 c 0
 306.279296875 104 307.279296875 60 311.279296875 28 c 4
 312.279296875 24 314.279296875 16 314.279296875 9 c 4
 314.279296875 3 312.279296875 -3 306.279296875 -3 c 4
 296.279296875 -4 296.279296875 19 295.279296875 26 c 4
 292.279296875 59 292.279296875 102 289.279296875 135 c 0
 284.279296875 191 283.279296875 250 283.279296875 310 c 0
 283.279296875 347 283.279296875 385 283.279296875 421 c 0
EndSplineSet
EndChar

StartChar: three
Encoding: 51 51 54
Width: 452
VWidth: 0
Flags: HW
HStem: 18 15<177.3 249.089> 363 17<279.174 323.879> 653 16<191.733 272.046>
VStem: 314 17<482.264 609.811> 376 16<188.987 300.284>
LayerCount: 2
Back
Fore
SplineSet
85 82 m 0
 85 86 89 89 92 89 c 0
 102 89 116 74 122 70 c 0
 149 50 184 33 218 33 c 2
 226 33 l 2
 251 35 275 54 294 69 c 0
 350 112 373 176 376 244 c 2
 376 252 l 2
 376 283 370 316 347 339 c 0
 332 354 310 363 288 363 c 0
 255 363 240 341 220 327 c 0
 216 325 200 313 191 313 c 0
 188 313 185 314 185 319 c 0
 184 328 196 335 202 340 c 0
 221 355 244 366 260 384 c 0
 299 427 314 499 314 557 c 2
 314 562 l 2
 314 586 309 615 291 632 c 0
 276 647 256 653 235 653 c 0
 184 653 127 618 102 586 c 0
 92 573 85 559 79 544 c 0
 77 538 77 527 72 523 c 0
 64 515 60 527 60 534 c 0
 61 550 71 566 78 580 c 0
 104 628 171 669 233 669 c 0
 254 669 274 664 292 653 c 0
 324 633 331 593 331 549 c 0
 331 491 313 421 278 380 c 1
 358 380 392 318 392 246 c 0
 392 244 392 242 392 240 c 0
 389 145 321 18 216 18 c 0
 168 18 137 38 106 60 c 0
 101 63 85 74 85 82 c 0
EndSplineSet
EndChar

StartChar: hyphen
Encoding: 45 45 55
Width: 376
VWidth: 0
Flags: HW
HStem: 185 16<117.329 299.891> 192 13<293.203 314.493>
VStem: 61.3601 253
LayerCount: 2
Back
Fore
SplineSet
82.3603515625 206 m 4xa0
 93.3603515625 207 104.360351562 208 115.360351562 208 c 4
 157.360351562 208 199.360351562 201 241.360351562 201 c 4xa0
 250.360351562 201 260.360351562 201 270.360351562 202 c 4
 279.360351562 203 290.360351562 206 300.360351562 206 c 4
 303.360351562 206 305.360351562 205 307.360351562 205 c 4
 313.360351562 204 319.360351562 198 314.360351562 192 c 4x60
 308.360351562 186 292.360351562 185 279.360351562 185 c 6
 248.360351562 185 l 6
 205.360351562 185 163.360351562 191 119.360351562 191 c 4
 112.360351562 191 95.3603515625 188 81.3603515625 188 c 4
 72.3603515625 188 63.3603515625 190 61.3603515625 194 c 4
 54.3603515625 206 76.3603515625 205 82.3603515625 206 c 4xa0
EndSplineSet
EndChar

StartChar: at
Encoding: 64 64 56
Width: 529
VWidth: 0
Flags: HW
HStem: 91 13<227.917 316.228> 266 16<173.403 206.078> 278 18<304.793 337.585> 413 16<238.607 271.639> 609 16<242.517 330.521>
VStem: 60 15<253.961 374.39> 157 16<282.386 325.206> 272 18<376.572 412.608> 404 17<413.301 534.544>
LayerCount: 2
Back
Fore
SplineSet
262 429 m 0xdf80
 281 429 290 416 290 394 c 0
 290 380 287 367 287 353 c 0
 287 345 288 338 291 330 c 0
 295 319 306 296 319 296 c 0
 321 296 322 296 324 297 c 0
 359 311 382 360 391 394 c 0
 398 421 404 452 404 481 c 0
 404 527 390 571 344 595 c 0
 328 604 309 609 287 609 c 0
 211 609 153 546 120 480 c 0
 95 430 75 369 75 311 c 0
 75 274 83 238 103 206 c 0
 119 180 145 158 170 141 c 0
 198 122 225 104 269 104 c 0
 320 104 368 128 414 148 c 0
 431 156 441 169 456 179 c 0
 460 182 467 182 469 176 c 0
 469 175 469 174 469 173 c 0
 469 163 454 153 448 148 c 0
 421 127 385 118 354 106 c 0
 329 96 302 91 275 91 c 0
 198 91 122 131 85 204 c 0
 68 238 60 277 60 316 c 0
 60 405 99 499 155 561 c 0
 190 599 241 625 291 625 c 0
 325 625 359 613 386 586 c 0
 411 561 421 522 421 480 c 0
 421 432 408 382 391 348 c 0
 380 327 351 278 320 278 c 0xbf80
 316 278 312 279 308 281 c 0
 283 293 277 322 268 346 c 1
 259 318 229 287 204 272 c 0
 198 268 190 266 183 266 c 0
 167 266 157 278 157 295 c 0
 157 304 159 312 161 320 c 0
 172 356 201 395 230 418 c 0
 238 424 250 429 262 429 c 0xdf80
255 413 m 1
 223 407 191 352 180 324 c 0
 178 318 173 305 173 295 c 0
 173 287 175 282 183 282 c 0
 184 282 185 282 186 282 c 0xdf80
 229 288 247 348 264 378 c 0
 268 384 272 394 272 402 c 0
 272 408 269 413 260 413 c 2
 255 413 l 1
EndSplineSet
EndChar

StartChar: parenright
Encoding: 41 41 57
Width: 223
VWidth: 0
Flags: HW
VStem: 73 27<6.18476 49.5348> 145 18<227.071 480.473>
LayerCount: 2
Back
Fore
SplineSet
65 736 m 2
 67 736 l 2
 80 736 92 711 96 702 c 0
 115 661 126 618 137 574 c 0
 154 503 163 426 163 349 c 0
 163 262 152 174 126 96 c 0
 114 60 103 36 100 29 c 0
 97 21 91 4 80 4 c 0
 75 4 73 8 73 13 c 0
 73 22 78 34 79 38 c 0
 80 42 95 59 107 92 c 0
 123 135 130 182 136 227 c 0
 142 270 145 314 145 358 c 0
 145 430 137 503 120 572 c 0
 110 615 99 659 79 698 c 0
 77 703 60 722 60 731 c 0
 60 734 61 735 65 736 c 2
EndSplineSet
EndChar

StartChar: grave
Encoding: 96 96 58
Width: 223
VWidth: 0
Flags: HW
HStem: 566 131
LayerCount: 2
Back
Fore
SplineSet
73.9072265625 677 m 1
 50.9072265625 673 59.9072265625 706 75.9072265625 697 c 0
 89.9072265625 690 94.9072265625 670 100.907226562 657 c 0
 112.907226562 633 124.907226562 614 143.907226562 595 c 0
 148.907226562 590 162.907226562 579 162.907226562 570 c 0
 162.907226562 569 162.907226562 567 161.907226562 566 c 0
 160.907226562 564 158.907226562 563 156.907226562 563 c 0
 147.907226562 563 133.907226562 580 129.907226562 584 c 0
 104.907226562 610 83.9072265625 642 73.9072265625 677 c 1
EndSplineSet
EndChar

StartChar: a
Encoding: 97 97 59
Width: 477
VWidth: 0
Flags: HW
HStem: 4 20<110.887 180.222> 344 19<178.154 271.125>
VStem: 60 18<68.2399 192.521> 345 21<254 294.965>
LayerCount: 2
Back
Fore
SplineSet
356 295 m 0
 366 295 367 283 367 271 c 0
 367 260 366 247 366 240 c 0
 366 239 366 238 366 237 c 0
 370 183 379 127 392 74 c 0
 396 58 401 42 408 28 c 0
 412 22 419 16 417 9 c 0
 415 4 413 2 411 2 c 0
 400 2 384 33 382 38 c 0
 365 86 354 141 352 192 c 1
 349 192 l 1
 340 120 254 43 191 15 c 4
 176 8 154 1 135 1 c 4
 87 1 67 58 62 94 c 0
 61 104 60 115 60 126 c 0
 60 197 89 286 135 331 c 0
 157 353 188 366 220 366 c 0
 255 366 290 351 314 326 c 0
 341 299 337 281 345 254 c 1
 345 255 345 256 345 257 c 0
 345 268 345 295 356 295 c 0
78 121 m 0
 78 79 94 21 140 21 c 4
 165 21 192 35 212 49 c 4
 233 63 253 82 271 100 c 0
 296 125 327 178 332 214 c 0
 332 231 331 259 326 271 c 0
 304 322 285 346 221 347 c 2
 220 347 l 2
 130 347 93 243 82 167 c 0
 80 153 78 137 78 121 c 0
EndSplineSet
EndChar

StartChar: t
Encoding: 116 116 60
Width: 217
VWidth: 0
Flags: HW
HStem: -1 21<139.906 191.194> 356 17<-9.61752 83.7665 100.047 128.172>
VStem: 78.0475 18<106.938 360 378 462.594> 90.0475 20<62.9753 136.282 382.875 582.053>
LayerCount: 2
Back
Fore
SplineSet
103.047851562 584 m 4xd0
 109.047851562 584 110.047851562 577 110.047851562 569 c 4xd0
 110.047851562 557 107.047851562 539 106.047851562 534 c 0
 102.047851562 482 100.047851562 414 100.047851562 362 c 1
 125.047851562 366 150.047851562 367 175.047851562 369 c 0
 181.047851562 370 197.047851562 372 197.047851562 362 c 0
 197.047851562 353 181.047851562 353 175.047851562 353 c 0
 150.047851562 351 125.047851562 347 100.047851562 346 c 1
 100.047851562 296 96.0478515625 261 96.0478515625 211 c 0
 96.0478515625 170 99.0478515625 128 109.047851562 88 c 0
 115.047851562 65 137.047851562 18 164.047851562 16 c 0
 171.047851562 15 177.047851562 20 184.047851562 20 c 0
 189.047851562 20 195.047851562 17 192.047851562 11 c 0
 188.047851562 2 175.047851562 -1 165.047851562 -1 c 0
 128.047851562 -1 105.047851562 47 95.0478515625 76 c 0
 82.0478515625 117 78.0478515625 159 78.0478515625 202 c 0xe0
 78.0478515625 255 84.0478515625 292 84.0478515625 344 c 1
 71.0478515625 341 57.0478515625 340 42.0478515625 340 c 0
 32.0478515625 340 21.0478515625 341 12.0478515625 341 c 0
 5.0478515625 341 -8.9521484375 341 -9.9521484375 350 c 0
 -10.9521484375 361 4.0478515625 357 10.0478515625 357 c 0
 13.0478515625 357 15.0478515625 357 18.0478515625 357 c 0
 33.0478515625 357 41.0478515625 357 57.0478515625 357 c 0
 63.0478515625 357 78.0478515625 359 84.0478515625 358 c 1
 85.0478515625 412 88.0478515625 482 90.0478515625 536 c 0
 90.0478515625 545 90.0478515625 584 103.047851562 584 c 4xd0
EndSplineSet
EndChar

StartChar: y
Encoding: 121 121 61
Width: 323
VWidth: 0
Flags: HW
HStem: -194 21<103.225 215.931>
VStem: 27.5333 18<185.641 364.942> 261.533 17<128.1 218.673> 276.533 16<-78.1928 117.823>
LayerCount: 2
Back
Fore
SplineSet
263.534179688 219 m 1xe0
 252.534179688 206 249.534179688 184 241.534179688 169 c 0
 211.534179688 105 175.534179688 48 118.534179688 13 c 0
 -5.4658203125 -57 19.5341796875 234 27.5341796875 344 c 4
 27.5341796875 352 26.5341796875 368 36.5341796875 369 c 4
 45.5341796875 370 45.5341796875 358 45.5341796875 351 c 4
 45.5341796875 331 42.5341796875 307 41.5341796875 287 c 0
 39.5341796875 254 36.5341796875 219 36.5341796875 184 c 0
 36.5341796875 147 39.5341796875 110 46.5341796875 76 c 0
 50.5341796875 53 62.5341796875 20 84.5341796875 20 c 0
 87.5341796875 20 91.5341796875 21 94.5341796875 22 c 0
 177.534179688 53 229.534179688 171 252.534179688 257 c 0
 258.534179688 283 259.534179688 323 263.534179688 349 c 4
 264.534179688 357 268.534179688 371 278.534179688 367 c 4
 287.534179688 363 286.534179688 346 285.534179688 338 c 4
 282.534179688 310 278.534179688 272 278.534179688 242 c 0
 278.534179688 237 278.534179688 232 278.534179688 228 c 0xe0
 283.534179688 158 292.534179688 85 292.534179688 14 c 0
 292.534179688 -60 287.534179688 -128 244.534179688 -170 c 0
 226.534179688 -188 198.534179688 -194 170.534179688 -194 c 0
 142.534179688 -194 114.534179688 -188 92.5341796875 -181 c 0
 82.5341796875 -177 48.5341796875 -172 48.5341796875 -157 c 0
 48.5341796875 -151 51.5341796875 -149 57.5341796875 -149 c 0
 68.5341796875 -149 87.5341796875 -158 92.5341796875 -159 c 0
 114.534179688 -167 141.534179688 -173 167.534179688 -173 c 0
 198.534179688 -173 228.534179688 -164 247.534179688 -134 c 0
 269.534179688 -97 276.534179688 -50 276.534179688 -2 c 0xd0
 276.534179688 44 270.534179688 91 267.534179688 131 c 0
 266.534179688 150 261.534179688 176 261.534179688 198 c 0
 261.534179688 206 262.534179688 212 263.534179688 219 c 1xe0
EndSplineSet
EndChar

StartChar: F
Encoding: 70 70 62
Width: 353
VWidth: 0
Flags: HW
HStem: 332 18<89.939 286.986> 648 17<160.276 352.344>
VStem: 78 17<4.15224 332.426 352.516 617.107>
LayerCount: 2
Back
Fore
SplineSet
267 350 m 0
 278 350 287 349 287 341 c 0
 287 333 268 332 255 332 c 2
 243 332 l 2
 192 332 140 334 89 334 c 1
 92 324 92 313 92 302 c 0
 92 287 91 271 91 258 c 0
 91 213 94 113 94 68 c 0
 94 50 94 32 95 14 c 0
 95 9 93 2 86 4 c 0
 76 7 78 26 78 34 c 2
 77 188 l 2
 77 239 70 291 70 342 c 2
 70 356 l 2
 70 410 75 467 75 522 c 0
 75 550 74 578 73 606 c 0
 73 614 68 627 74 634 c 0
 86 647 115 651 131 653 c 0
 182 660 236 664 287 664 c 0
 293 664 304 665 316 665 c 0
 334 665 353 663 353 654 c 2
 353 652 l 2
 351 645 343 646 338 647 c 0
 330 648 321 648 312 648 c 2
 265 648 l 2
 206 648 135 646 87 618 c 1
 93 599 95 577 95 555 c 0
 95 520 90 483 90 451 c 0
 90 431 92 409 92 388 c 0
 92 375 92 363 89 352 c 1
 109 347 131 346 153 346 c 0
 182 346 211 348 237 348 c 0
 242 348 256 350 267 350 c 0
EndSplineSet
EndChar

StartChar: U
Encoding: 85 85 63
Width: 503
VWidth: 0
Flags: HW
HStem: 7 16<211.653 291.479> 650 20G<79.5 83.5>
VStem: 70 18<356.776 667.856> 454 22<570.594 658.202> 466 17<388.968 626.489>
LayerCount: 2
Back
Fore
SplineSet
454 648 m 0xf0
 454 654 456 659 462 659 c 0
 474 659 475 627 476 619 c 0xf0
 481 591 483 561 483 531 c 0
 483 513 482 495 481 478 c 0
 471 355 472 218 406 112 c 0
 373 59 332 7 250 7 c 0
 214 7 181 21 154 55 c 0
 139 74 130 97 121 119 c 0
 78 227 78 357 76 473 c 0
 75 522 72 570 72 619 c 0
 72 625 70 637 70 648 c 0
 70 657 71 665 75 668 c 0
 77 670 79 670 80 670 c 0
 87 670 88 653 88 643 c 0
 88 640 88 637 88 636 c 0
 88 594 89 549 91 507 c 0
 97 385 91 258 130 140 c 0
 148 84 184 23 248 23 c 0
 313 23 361 70 395 127 c 0
 460 241 466 386 466 527 c 0xe8
 466 557 465 587 460 617 c 0
 459 622 454 637 454 648 c 0xf0
EndSplineSet
EndChar

StartChar: four
Encoding: 52 52 64
Width: 416
VWidth: 0
Flags: HW
HStem: 286 18<77.0262 336.891>
VStem: 60 17<304.07 337.993> 188 19<592.918 649.765> 327 17<456.448 674.965> 339 17<3.36551 296 306 467.336>
LayerCount: 2
Back
Fore
SplineSet
86 286 m 0xe8
 70 286 60 293 60 309 c 0
 60 333 83 369 90 384 c 0
 121 451 154 518 177 588 c 0
 181 601 186 615 188 628 c 0
 189 635 185 643 188 649 c 0
 191 656 200 655 203 650 c 0
 206 645 207 639 207 633 c 0
 207 608 189 573 183 556 c 0
 162 501 139 445 113 392 c 0
 101 367 77 333 77 306 c 2
 77 304 l 1
 260 307 l 1
 339 306 l 1xe8
 339 412 328 518 328 624 c 0
 328 629 327 641 327 652 c 0
 327 664 328 675 335 675 c 0
 344 675 344 663 344 651 c 2
 344 636 l 2xf0
 347 597 344 557 348 518 c 0
 355 441 356 363 356 285 c 0
 356 215 356 146 356 76 c 0
 356 69 356 5 347 3 c 0
 340 3 339 56 339 61 c 2
 339 296 l 1
 328 289 313 288 297 288 c 0
 276 288 253 291 235 291 c 2
 231 291 l 2
 192 290 152 289 113 288 c 0
 106 288 96 286 86 286 c 0xe8
EndSplineSet
EndChar

StartChar: endash
Encoding: 8211 8211 65
Width: 374
VWidth: 0
Flags: HW
HStem: 319 17<122.049 311.717> 330 14<61.0288 184.038>
LayerCount: 2
Back
Fore
SplineSet
64.052734375 344 m 0x40
 69.052734375 347 76.052734375 348 84.052734375 348 c 0
 98.052734375 348 115.052734375 345 125.052734375 344 c 0x40
 171.052734375 340 219.052734375 336 265.052734375 336 c 0
 276.052734375 336 288.052734375 340 299.052734375 340 c 0
 308.052734375 340 319.052734375 335 312.052734375 327 c 0
 305.052734375 320 289.052734375 319 274.052734375 319 c 0x80
 264.052734375 319 255.052734375 320 249.052734375 320 c 0
 189.052734375 323 128.052734375 325 69.052734375 330 c 0
 61.052734375 331 56.052734375 339 64.052734375 344 c 0x40
EndSplineSet
EndChar

StartChar: slash
Encoding: 47 47 66
Width: 432
VWidth: 0
Flags: HW
LayerCount: 2
Back
Fore
SplineSet
363 648 m 0
 379 657 368 624 366 620 c 0
 352 589 337 558 321 528 c 0
 257 408 190 289 129 168 c 0
 112 134 96 100 84 64 c 0
 81 55 79 30 69 27 c 0
 68 27 67 26 66 26 c 0
 61 26 60 30 60 35 c 0
 60 45 65 59 66 62 c 0
 78 99 95 135 112 170 c 0
 141 230 174 287 206 346 c 0
 238 406 268 467 301 526 c 0
 317 555 332 584 345 614 c 0
 349 623 354 643 363 648 c 0
EndSplineSet
EndChar

StartChar: asterisk
Encoding: 42 42 67
Width: 354
VWidth: 0
Flags: HW
HStem: 531 1<65.2825 72.0488> 541 15<90.2534 151.081> 546 17<217.916 286.433>
VStem: 173.189 16<401.097 509.438 560 649.124>
LayerCount: 2
Back
Fore
SplineSet
173.188476562 560 m 1xd0
 173.188476562 587 174.188476562 614 177.188476562 641 c 0
 178.188476562 648 181.188476562 668 193.188476562 662 c 0
 203.188476562 657 194.188476562 644 193.188476562 636 c 0
 190.188476562 610 189.188476562 584 189.188476562 558 c 1
 215.188476562 578 238.188476562 606 259.188476562 632 c 0
 265.188476562 640 276.188476562 658 287.188476562 658 c 0
 304.188476562 658 282.188476562 634 279.188476562 630 c 0
 260.188476562 605 239.188476562 582 217.188476562 560 c 1
 234.188476562 560 252.188476562 563 270.188476562 563 c 0
 272.188476562 563 274.188476562 563 276.188476562 563 c 0
 283.188476562 562 291.188476562 556 284.188476562 550 c 0
 278.188476562 545 266.188476562 546 259.188476562 546 c 0xb0
 239.188476562 545 216.188476562 547 197.188476562 540 c 1
 197.188476562 538 l 1
 222.188476562 522 243.188476562 502 269.188476562 488 c 0
 275.188476562 485 290.188476562 478 285.188476562 469 c 0
 284.188476562 467 282.188476562 466 279.188476562 466 c 0
 258.188476562 466 198.188476562 516 189.188476562 524 c 1
 189.188476562 432 l 2
 189.188476562 428 190.188476562 422 190.188476562 416 c 0
 190.188476562 409 189.188476562 403 184.188476562 401 c 0
 171.188476562 396 173.188476562 418 173.188476562 424 c 0
 172.188476562 440 172.188476562 457 172.188476562 474 c 0
 172.188476562 486 172.188476562 498 173.188476562 510 c 1
 157.188476562 493 143.188476562 475 130.188476562 456 c 0
 127.188476562 451 119.188476562 441 112.188476562 446 c 0
 104.188476562 452 116.188476562 467 120.188476562 472 c 0
 136.188476562 495 156.188476562 516 173.188476562 538 c 1
 166.188476562 540 157.188476562 541 149.188476562 541 c 0
 132.188476562 541 113.188476562 538 98.1884765625 535 c 0
 91.1884765625 534 80.1884765625 531 72.1884765625 531 c 0
 69.1884765625 531 67.1884765625 531 65.1884765625 532 c 0
 51.1884765625 538 69.1884765625 547 76.1884765625 548 c 0
 101.188476562 552 126.188476562 556 151.188476562 556 c 1
 136.188476562 573 122.188476562 591 107.188476562 608 c 0
 103.188476562 612 92.1884765625 623 103.188476562 627 c 0
 111.188476562 630 120.188476562 619 124.188476562 614 c 0
 140.188476562 595 155.188476562 577 173.188476562 560 c 1xd0
EndSplineSet
EndChar

StartChar: braceleft
Encoding: 123 123 68
Width: 368
VWidth: 0
Flags: HW
HStem: -8 15<233.66 287.476> 381 15<86.4399 114.891> 673 14<195.427 250.738>
VStem: 117 13<534.68 611.507> 124 11<322.014 366.009> 159 13<341.973 415.556>
LayerCount: 2
Back
Fore
SplineSet
107 396 m 0xec
 134 396 135 352 135 322 c 1xec
 153 335 159 352 159 371 c 0
 159 386 155 403 152 419 c 0
 143 464 117 524 117 576 c 0
 117 643 172 687 230 687 c 0
 243 687 269 684 269 669 c 0
 269 663 264 661 260 662 c 0
 248 666 244 673 232 673 c 0
 183 673 130 638 130 579 c 0xf4
 130 549 141 517 149 491 c 0
 158 459 164 426 170 394 c 0
 171 387 172 380 172 372 c 0
 172 344 162 313 135 308 c 1
 142 257 151 162 162 111 c 0
 166 93 167 67 179 53 c 0
 198 31 236 7 265 7 c 0
 280 7 288 18 302 18 c 0
 305 18 308 17 308 13 c 0
 308 0 278 -8 267 -8 c 0
 236 -8 195 16 173 39 c 0
 157 55 156 80 151 102 c 0
 139 154 129 250 123 303 c 1
 114 299 104 296 94 296 c 0
 72 296 60 324 60 347 c 0
 60 370 83 396 107 396 c 0xec
104 381 m 0
 90 381 74 365 72 352 c 0
 70 334 79 306 99 310 c 0
 105 311 119 314 122 320 c 0
 124 324 124 330 124 336 c 0
 124 355 117 381 104 381 c 0
EndSplineSet
EndChar

StartChar: g
Encoding: 103 103 69
Width: 379
VWidth: 0
Flags: HW
HStem: -196 20<150.827 236.107> -153 49<40.0293 74.2308> 4 19<66.2669 145.807> 357 16<179.245 254.279>
VStem: 20 19<55.7625 163.392> 292 27<197.315 331.772> 292 18<186.93 282.639> 302 14<-49.7148 148.077>
LayerCount: 2
Back
Fore
SplineSet
292 161 m 1xfa
 271 85 206 28 136 10 c 0
 123 7 110 4 97 4 c 0
 77 4 59 10 43 28 c 0
 26 47 20 74 20 101 c 0
 20 123 24 145 29 164 c 0
 45 232 79 293 133 336 c 0
 157 355 189 367 219 367 c 0
 247 367 275 357 297 336 c 0
 314 320 319 300 319 278 c 0xfc
 319 249 310 224 310 196 c 0xfa
 310 194 311 193 311 191 c 0
 314 111 316 109 316 29 c 0
 316 -47 310 -116 267 -167 c 0
 248 -189 225 -196 201 -196 c 0
 160 -196 115 -172 80 -153 c 0
 66 -146 28 -130 25 -113 c 2
 25 -109 l 2
 25 -105 27 -104 31 -104 c 0
 43 -104 68 -121 71 -124 c 0
 105 -145 154 -176 198 -176 c 0
 219 -176 239 -169 255 -150 c 0
 291 -106 301 -40 301 26 c 0
 301 52 302 52 302 54 c 0xf9
 302 56 301 59 300 75 c 0
 298 103 300 134 292 161 c 1xfa
204 350 m 0
 112 335 60 229 43 142 c 0
 41 131 39 119 39 107 c 0
 39 66 53 23 96 23 c 0
 99 23 102 23 105 23 c 0
 196 34 264 106 287 200 c 0
 291 215 292 231 292 247 c 2
 292 277 l 2
 292 284 294 293 294 301 c 0
 294 305 294 309 292 312 c 0
 281 337 243 351 216 351 c 0
 211 351 208 351 204 350 c 0
EndSplineSet
EndChar

StartChar: i
Encoding: 105 105 70
Width: 144
VWidth: 0
Flags: HW
HStem: 4 15<92.1765 110.788> 338 20G<70.6615 81.1615>
VStem: 61.1615 16<67.3296 332.896>
LayerCount: 2
Back
Fore
SplineSet
71.701171875 511.099609375 m 0
 92.6962890625 516.719726562 95.92578125 487.21484375 78.1611328125 483 c 0
 58.78125 478.78515625 52.3212890625 505.48046875 71.701171875 511.099609375 c 0
93.1611328125 17 m 5
 98.1611328125 20 119.161132812 28 113.161132812 13 c 4
 110.161132812 6 103.161132812 2 96.1611328125 2 c 4
 78.1611328125 2 73.1611328125 23 72.1611328125 38 c 4
 66.1611328125 83 61.1611328125 162 61.1611328125 219 c 0
 61.1611328125 238 62.1611328125 257 63.1611328125 272 c 0
 64.1611328125 286 63.1611328125 369 78.1611328125 369 c 0
 84.1611328125 369 86.1611328125 363 86.1611328125 358 c 0
 85.1611328125 341 80.1611328125 290 79.1611328125 273 c 0
 78.1611328125 254 77.1611328125 231 77.1611328125 207 c 0
 77.1611328125 147 82.1611328125 64 93.1611328125 17 c 5
EndSplineSet
EndChar

StartChar: z
Encoding: 122 122 71
Width: 287
VWidth: 0
Flags: HW
HStem: 4 17<29.5861 266.017> 347 18<39.145 210.324>
VStem: 10 257<7.30691 20.9908>
LayerCount: 2
Back
Fore
SplineSet
38 4 m 0
 24 4 10 7 10 21 c 0
 10 43 43 87 52 102 c 0
 97 175 174 270 225 337 c 1
 186 343 146 347 103 347 c 0
 85 347 64 344 46 346 c 0
 40 347 35 352 39 358 c 0
 42 363 51 364 59 364 c 0
 63 364 68 364 71 364 c 0
 80 364 88 365 97 365 c 0
 129 365 163 360 195 357 c 0
 207 356 242 357 244 341 c 0
 245 332 236 323 231 317 c 0
 183 263 116 172 77 110 c 0
 62 86 40 48 29 22 c 1
 34 21 39 21 44 21 c 0
 60 21 77 24 93 24 c 0
 120 24 146 24 172 24 c 0
 185 24 198 24 211 24 c 0
 217 24 229 25 241 25 c 0
 255 25 267 23 267 16 c 0
 267 3 238 2 224 2 c 0
 183 2 141 7 99 7 c 0
 88 7 76 6 65 6 c 0
 59 6 48 4 38 4 c 0
EndSplineSet
EndChar

StartChar: I
Encoding: 73 73 72
Width: 171
VWidth: 0
Flags: HW
HStem: 6 21G<102 116.5>
VStem: 80 18<146.362 608.92> 87 17<42.4395 420.592 426.828 663.756>
LayerCount: 2
Back
Fore
SplineSet
121 13 m 0xc0
 121 9 119 6 114 6 c 0
 90 6 87 117 87 142 c 0xa0
 86 235 80 331 80 425 c 0xc0
 80 464 81 503 84 542 c 0
 87 572 84 603 87 633 c 0
 88 641 85 659 94 664 c 0
 106 670 104 644 104 639 c 0xa0
 103 607 100 574 100 542 c 0
 99 481 98 420 98 358 c 0
 98 289 99 220 103 151 c 0
 105 114 103 75 113 39 c 0
 114 34 121 21 121 13 c 0xc0
EndSplineSet
EndChar

StartChar: V
Encoding: 86 86 73
Width: 457
VWidth: 0
Flags: HW
HStem: 6 21G<241 252>
LayerCount: 2
Back
Fore
SplineSet
460 671 m 0
 464 671 467 665 467 661 c 0
 467 653 461 642 460 636 c 0
 450 604 450 607 443 575 c 0
 410 431 351 293 303 154 c 0
 290 116 274 78 263 40 c 0
 260 30 258 6 246 6 c 0
 236 6 232 23 228 31 c 0
 215 60 205 91 196 122 c 0
 158 252 120 385 93 518 c 0
 86 554 77 590 67 626 c 0
 66 631 60 643 60 652 c 0
 60 655 61 658 63 660 c 0
 76 670 81 639 83 632 c 0
 92 594 100 555 109 518 c 0
 127 436 151 356 172 275 c 0
 194 194 214 113 244 35 c 1
 274 110 297 190 324 267 c 0
 357 362 395 455 421 552 c 0
 432 593 431 599 443 639 c 0
 445 644 451 671 460 671 c 0
EndSplineSet
EndChar

StartChar: five
Encoding: 53 53 74
Width: 415
VWidth: 0
Flags: HW
HStem: 15 18<111.505 190.28> 420 16<163.308 232.57> 657 18<143.835 334.229>
VStem: 96.2852 12<404.124 600.25> 336.285 19<168.29 295.971>
LayerCount: 2
Back
Fore
SplineSet
116.28515625 394 m 1
 134.28515625 415 157.28515625 436 195.28515625 436 c 0
 240.28515625 436 287.28515625 407 311.28515625 372 c 0
 339.28515625 332 355.28515625 280 355.28515625 228 c 0
 355.28515625 183 343.28515625 139 317.28515625 104 c 0
 274.28515625 47 202.28515625 17 132.28515625 15 c 2
 130.28515625 15 l 2
 108.28515625 15 87.28515625 34 72.28515625 49 c 0
 67.28515625 54 58.28515625 64 60.28515625 72 c 0
 63.28515625 83 75.28515625 72 79.28515625 68 c 0
 102.28515625 43 122.28515625 33 147.28515625 33 c 0
 160.28515625 33 174.28515625 36 190.28515625 40 c 0
 286.28515625 65 336.28515625 145 336.28515625 231 c 0
 336.28515625 261 330.28515625 291 319.28515625 320 c 0
 302.28515625 366 251.28515625 420 197.28515625 420 c 0
 162.28515625 420 139.28515625 399 126.28515625 376 c 0
 123.28515625 370 118.28515625 360 110.28515625 362 c 0
 97.28515625 366 96.28515625 402 96.28515625 418 c 2
 96.28515625 424 l 2
 94.28515625 468 94.28515625 511 92.28515625 555 c 0
 91.28515625 569 90.28515625 585 90.28515625 601 c 0
 90.28515625 610 90.28515625 618 92.28515625 626 c 1
 83.28515625 624 71.28515625 629 80.28515625 640 c 0
 86.28515625 647 97.28515625 654 106.28515625 657 c 0
 145.28515625 672 192.28515625 674 235.28515625 674 c 2
 274.28515625 674 l 2
 290.28515625 674 305.28515625 675 321.28515625 675 c 0
 326.28515625 675 335.28515625 673 334.28515625 666 c 0
 333.28515625 659 319.28515625 657 305.28515625 657 c 0
 294.28515625 657 284.28515625 658 280.28515625 658 c 0
 221.28515625 658 163.28515625 655 106.28515625 640 c 1
 110.28515625 619 111.28515625 597 111.28515625 575 c 0
 111.28515625 540 108.28515625 506 108.28515625 471 c 0
 108.28515625 445 110.28515625 419 116.28515625 394 c 1
EndSplineSet
EndChar

StartChar: emdash
Encoding: 8212 8212 75
Width: 526
VWidth: 0
Flags: HW
HStem: 330 16<60.008 198.906> 340 15<182.654 465.614>
LayerCount: 2
Back
Fore
SplineSet
94 346 m 0x80
 141 348 186 355 235 355 c 0
 250 355 264 354 279 354 c 0
 288 354 297 354 306 355 c 0x40
 346 358 388 358 428 354 c 0
 433 353 466 355 466 346 c 0x80
 466 334 444 337 436 338 c 0
 418 339 401 340 383 340 c 2
 364 340 l 2x40
 287 337 209 334 132 332 c 0
 114 331 96 330 78 330 c 0
 71 330 60 329 60 338 c 0
 60 345 70 347 80 347 c 0
 86 347 91 346 94 346 c 0x80
EndSplineSet
EndChar

StartChar: backslash
Encoding: 92 92 76
Width: 423
VWidth: 0
Flags: HW
VStem: 341.579 21<-4.69482 51.832>
LayerCount: 2
Back
Fore
SplineSet
68.5791015625 674 m 0
 78.5791015625 674 83.5791015625 652 86.5791015625 644 c 0
 100.579101562 613 113.579101562 581 128.579101562 550 c 0
 191.579101562 416 257.579101562 283 313.579101562 146 c 0
 328.579101562 108 347.579101562 71 358.579101562 32 c 0
 359.579101562 28 362.579101562 17 362.579101562 8 c 0
 362.579101562 1 360.579101562 -5 353.579101562 -5 c 0
 343.579101562 -5 343.579101562 22 341.579101562 30 c 0
 329.579101562 69 311.579101562 107 295.579101562 144 c 0
 236.579101562 280 173.579101562 413 111.579101562 548 c 0
 96.5791015625 580 82.5791015625 612 67.5791015625 644 c 0
 64.5791015625 651 51.5791015625 674 68.5791015625 674 c 0
EndSplineSet
EndChar

StartChar: plus
Encoding: 43 43 77
Width: 412
VWidth: 0
Flags: HW
HStem: 342 16<60.4029 186> 353 18<216.336 351.9>
VStem: 179 17<361.688 502.857> 187 15<273.989 343.718 360 476.25> 194 16<210.148 322.732>
LayerCount: 2
Back
Fore
SplineSet
179 323 m 4xa0
 179 332 181 340 189 340 c 4
 195 340 196 330 196 321 c 6
 196 308 l 6xa0
 197 271 202 234 202 197 c 5
 240 203 280 205 318 207 c 4
 321 207 326 208 332 208 c 4
 342 208 352 206 352 199 c 6
 352 197 l 6
 350 191 340 190 331 190 c 6
 316 190 l 5
 278 186 240 185 202 181 c 5x50
 211 150 209 109 210 77 c 4
 210 70 215 47 203 47 c 4
 195 47 194 59 194 69 c 6
 194 77 l 6x48
 192 104 187 134 187 161 c 4x50
 187 168 187 175 188 181 c 5
 160 181 131 179 103 179 c 6
 85 179 l 6
 76 179 60 180 60 189 c 6
 60 191 l 6
 63 204 82 195 90 195 c 4
 98 195 105 194 113 194 c 6
 186 197 l 5
 186 233 182 269 180 305 c 4
 180 309 179 317 179 323 c 4xa0
EndSplineSet
EndChar

StartChar: bar
Encoding: 124 124 78
Width: 150
VWidth: 0
Flags: HW
VStem: 64 18<393.01 661.452> 75 15<4.8457 247.5>
LayerCount: 2
Back
Fore
SplineSet
60 634 m 0x80
 60 646 61 662 71 662 c 0
 77 662 78 651 78 639 c 0
 78 628 77 616 77 613 c 0
 77 560 81 506 81 453 c 0
 81 448 82 435 82 422 c 0
 82 407 82 393 73 393 c 0
 66 393 64 405 64 418 c 0
 64 430 65 443 65 449 c 0
 65 502 61 556 61 609 c 0
 61 614 60 624 60 634 c 0x80
89 36 m 0
 89 22 88 3 78 3 c 0
 72 3 70 14 70 25 c 0
 70 35 72 45 72 49 c 0
 74 74 75 99 75 125 c 0
 75 154 74 184 73 213 c 0
 73 220 67 242 67 257 c 0
 67 264 69 270 73 271 c 0
 88 273 89 225 89 215 c 0
 90 188 90 161 90 134 c 0x40
 90 107 90 79 89 52 c 0
 89 49 89 43 89 36 c 0
EndSplineSet
EndChar

StartChar: s
Encoding: 115 115 79
Width: 307
VWidth: 0
Flags: HW
HStem: 4 16<86.5949 197.8> 357 17<115.465 214.899>
VStem: 63.3197 15<276.291 325.612> 252.32 15<58.5437 105.275>
LayerCount: 2
Back
Fore
SplineSet
267.3203125 82 m 0
 267.3203125 26 199.3203125 4 138.3203125 4 c 0
 86.3203125 4 44.3203125 22 24.3203125 57 c 0
 21.3203125 62 16.3203125 72 24.3203125 75 c 0
 30.3203125 78 35.3203125 71 38.3203125 67 c 0
 48.3203125 53 58.3203125 41 73.3203125 33 c 0
 90.3203125 25 115.3203125 20 141.3203125 20 c 0
 185.3203125 20 231.3203125 33 248.3203125 63 c 0
 251.3203125 68 252.3203125 74 252.3203125 80 c 0
 252.3203125 99 238.3203125 118 225.3203125 130 c 0
 185.3203125 164 121.3203125 204 84.3203125 243 c 0
 69.3203125 258 63.3203125 275 63.3203125 290 c 0
 63.3203125 326 98.3203125 357 140.3203125 364 c 0
 148.3203125 365 156.3203125 365 164.3203125 365 c 0
 185.3203125 365 208.3203125 362 226.3203125 355 c 0
 231.3203125 353 248.3203125 341 248.3203125 332 c 0
 248.3203125 329 246.3203125 327 242.3203125 326 c 2
 240.3203125 326 l 2
 231.3203125 326 216.3203125 341 207.3203125 343 c 0
 194.3203125 346 178.3203125 348 162.3203125 348 c 0
 122.3203125 348 79.3203125 335 78.3203125 290 c 2
 78.3203125 289 l 2
 78.3203125 269 99.3203125 250 114.3203125 239 c 0
 153.3203125 210 214.3203125 171 247.3203125 133 c 0
 260.3203125 118 267.3203125 100 267.3203125 82 c 0
EndSplineSet
EndChar

StartChar: j
Encoding: 106 106 80
Width: 143
VWidth: 0
Flags: HW
HStem: -160 17<-17.4664 54.3412>
VStem: 89 14<-53.9835 359.324>
LayerCount: 2
Back
Fore
SplineSet
81.75 510.379882812 m 0
 99.25 519.5 108 488.719726562 91.75 480.740234375 c 0
 73 471.620117188 68 503.540039062 81.75 510.379882812 c 0
-70 -105 m 0
 -70 -102 -68 -99 -64 -99 c 0
 -53 -99 -29 -128 -21 -132 c 0
 -10 -138 6 -142 22 -142 c 0
 37 -142 51 -138 60 -129 c 0
 73 -115 76 -93 79 -75 c 0
 87 -25 89 26 89 77 c 0
 89 128 87 179 87 229 c 0
 87 252 87 312 84 335 c 0
 83 342 79 357 86 362 c 0
 99 370 99 348 100 341 c 0
 103 314 103 250 103 223 c 0
 103 186 103 149 103 112 c 0
 103 57 102 2 97 -53 c 0
 94 -83 93 -132 63 -149 c 0
 51 -156 37 -159 22 -159 c 0
 -1 -159 -25 -152 -41 -140 c 0
 -47 -136 -70 -117 -70 -105 c 0
EndSplineSet
EndChar

StartChar: C
Encoding: 67 67 81
Width: 375
VWidth: 0
Flags: HW
HStem: 3 18<197.917 304.446> 656 15<230.106 290.636>
VStem: 60 16<225.551 397.355> 369 16<513.1 569.234>
LayerCount: 2
Back
Fore
SplineSet
250 670 m 0
 254 671 257 671 261 671 c 0
 309 671 357 624 375 582 c 0
 382 565 383 548 385 530 c 0
 386 525 388 515 381 513 c 0
 374 511 370 518 369 523 c 0
 365 539 367 554 361 570 c 0
 347 606 305 656 261 656 c 0
 258 656 254 656 250 655 c 0
 180 640 145 574 118 513 c 0
 91 449 76 379 76 309 c 0
 76 259 83 209 99 162 c 0
 111 126 126 90 151 61 c 0
 175 33 212 21 250 21 c 0
 278 21 307 28 329 41 c 0
 353 55 373 68 389 91 c 0
 393 96 405 103 405 90 c 0
 405 81 395 69 391 64 c 0
 370 40 336 23 307 12 c 0
 291 6 273 3 254 3 c 0
 215 3 173 16 147 40 c 0
 118 67 102 108 89 145 c 0
 70 199 60 257 60 316 c 0
 60 399 80 483 120 555 c 0
 152 611 182 659 250 670 c 0
EndSplineSet
EndChar

StartChar: J
Encoding: 74 74 82
Width: 341
VWidth: 0
Flags: HW
HStem: 5 14<176.984 240.257> 648 20G<284.05 292.55>
VStem: 280.05 18<513.875 667.88> 293.05 18<136.594 575.675>
LayerCount: 2
Back
Fore
SplineSet
290.049804688 464 m 0xd0
 290.049804688 523 283.049804688 577 280.049804688 633 c 0
 280.049804688 636 280.049804688 641 280.049804688 647 c 0
 280.049804688 657 281.049804688 667 287.049804688 668 c 2
 288.049804688 668 l 2
 297.049804688 668 298.049804688 654 298.049804688 643 c 0
 298.049804688 641 298.049804688 639 298.049804688 637 c 0
 298.049804688 635 298.049804688 633 298.049804688 632 c 0xe0
 302.049804688 592 304.049804688 552 305.049804688 512 c 0
 307.049804688 441 311.049804688 368 311.049804688 295 c 0
 311.049804688 238 309.049804688 182 301.049804688 127 c 0
 295.049804688 84 285.049804688 14 233.049804688 6 c 0
 227.049804688 5 220.049804688 5 213.049804688 5 c 0
 159.049804688 5 97.0498046875 32 65.0498046875 73 c 0
 52.0498046875 89 44.0498046875 112 41.0498046875 133 c 0
 40.0498046875 139 38.0498046875 152 45.0498046875 156 c 0
 50.0498046875 159 54.0498046875 154 55.0498046875 149 c 0
 61.0498046875 129 62.0498046875 111 74.0498046875 92 c 0
 82.0498046875 80 95.0498046875 70 107.049804688 62 c 0
 132.049804688 46 176.049804688 19 213.049804688 19 c 0
 233.049804688 19 250.049804688 27 261.049804688 48 c 0
 286.049804688 96 290.049804688 155 292.049804688 209 c 0
 293.049804688 228 293.049804688 246 293.049804688 264 c 0
 293.049804688 313 290.049804688 361 290.049804688 411 c 0
 290.049804688 428 290.049804688 446 290.049804688 464 c 0xd0
EndSplineSet
EndChar

StartChar: W
Encoding: 87 87 83
Width: 642
VWidth: 0
Flags: HW
HStem: 12 18<210.052 265.098> 20 17<438.5 487.655> 650 20G<608 616>
VStem: 70 16<404.6 643.516> 344 17<190.489 273.902> 604 18<452.979 669.645>
LayerCount: 2
Back
Fore
SplineSet
604 658 m 0x7c
 604 665 605 670 611 670 c 0
 621 670 622 650 622 640 c 0
 622 638 622 637 622 636 c 0
 622 594 622 551 618 510 c 0
 608 400 604 286 576 178 c 0
 563 128 546 74 507 38 c 0
 493 25 479 20 464 20 c 0x7c
 447 20 430 27 415 41 c 0
 384 70 354 129 354 174 c 0
 354 177 355 181 355 184 c 1
 346 172 346 149 341 134 c 0
 329 94 308 45 271 22 c 0
 260 15 249 12 238 12 c 0
 194 12 155 62 141 100 c 0
 125 142 118 187 109 230 c 0
 89 321 71 416 71 510 c 0
 71 533 70 556 70 579 c 0
 70 594 70 610 72 625 c 0
 73 635 72 656 82 662 c 0
 88 665 99 660 98 652 c 0
 97 645 90 641 89 634 c 0
 87 616 86 597 86 579 c 0
 86 557 87 536 87 514 c 0
 88 392 113 266 143 148 c 0
 156 98 177 41 234 30 c 0
 236 30 238 30 240 30 c 0xbc
 261 30 278 48 289 64 c 0
 329 120 339 181 344 259 c 0
 344 264 345 272 351 274 c 0
 359 276 360 265 361 260 c 0
 369 185 374 124 415 68 c 0
 430 49 446 37 463 37 c 0
 488 37 510 64 522 84 c 0
 554 138 568 205 576 267 c 0
 588 354 594 439 602 526 c 0
 606 562 605 600 606 636 c 0
 606 641 604 650 604 658 c 0x7c
EndSplineSet
EndChar

StartChar: six
Encoding: 54 54 84
Width: 478
VWidth: 0
Flags: HW
HStem: 40 16<173.68 284.824> 388 15<264.855 336.854>
VStem: 60 16<232.094 388.19> 404 14<194.722 304.49>
LayerCount: 2
Back
Fore
SplineSet
225 680 m 0
 228 680 233 677 233 673 c 0
 233 664 213 652 210 648 c 0
 184 617 162 581 142 546 c 0
 101 475 76 391 76 308 c 0
 76 247 90 186 121 132 c 1
 137 226 160 326 243 387 c 0
 258 398 278 403 299 403 c 0
 333 403 369 389 387 364 c 0
 410 332 418 290 418 250 c 2
 418 236 l 2
 415 184 393 110 351 77 c 0
 322 55 286 46 251 42 c 0
 241 41 231 40 220 40 c 0
 200 40 179 43 161 54 c 0
 123 78 99 130 84 172 c 0
 68 218 60 265 60 312 c 0
 60 401 88 490 135 568 c 0
 154 599 174 632 198 660 c 0
 203 666 214 680 225 680 c 0
404 255 m 0
 404 325 366 388 300 388 c 0
 245 388 216 341 193 304 c 0
 185 291 176 278 169 264 c 0
 151 229 144 188 139 149 c 0
 138 140 136 129 136 119 c 0
 136 87 162 65 187 59 c 0
 198 56 210 56 221 56 c 0
 273 56 317 66 347 94 c 0
 385 129 404 200 404 255 c 0
EndSplineSet
EndChar

StartChar: equal
Encoding: 61 61 85
Width: 284
VWidth: 0
Flags: HW
HStem: 256 15<67.0999 126.689> 262 17<72.0525 202.299> 406 12<60.09 196.939>
LayerCount: 2
Back
Fore
SplineSet
198.626953125 423 m 0x20
 205.626953125 424 235.626953125 420 219.626953125 409 c 0
 215.626953125 406 209.626953125 406 203.626953125 406 c 2
 187.626953125 406 l 2
 157.626953125 404 127.626953125 402 97.626953125 402 c 0
 93.626953125 402 86.626953125 401 79.626953125 401 c 0
 71.626953125 401 64.626953125 402 61.626953125 407 c 0
 52.626953125 421 83.626953125 418 89.626953125 418 c 0
 125.626953125 418 162.626953125 419 198.626953125 423 c 0x20
104.626953125 277 m 0
 117.626953125 278 131.626953125 279 145.626953125 279 c 0
 163.626953125 279 181.626953125 278 199.626953125 278 c 0
 205.626953125 278 233.626953125 274 217.626953125 264 c 0
 213.626953125 262 208.626953125 261 202.626953125 261 c 0
 195.626953125 261 188.626953125 262 183.626953125 262 c 0x60
 157.626953125 262 130.626953125 261 104.626953125 260 c 0
 97.626953125 260 86.626953125 256 77.626953125 256 c 0
 67.626953125 256 62.626953125 266 71.626953125 271 c 0xa0
 80.626953125 277 94.626953125 276 104.626953125 277 c 0
EndSplineSet
EndChar

StartChar: asciitilde
Encoding: 126 126 86
Width: 376
VWidth: 0
Flags: HW
HStem: 276 16<199.989 255.266> 347 19<90.1772 127.657>
LayerCount: 2
Back
Fore
SplineSet
305.943359375 366 m 0
 322.943359375 371 314.943359375 340 311.943359375 334 c 0
 301.943359375 313 274.943359375 290 253.943359375 281 c 0
 245.943359375 278 237.943359375 276 229.943359375 276 c 0
 197.943359375 276 171.943359375 301 147.943359375 321 c 0
 137.943359375 329 119.943359375 347 105.943359375 347 c 0
 91.943359375 347 81.943359375 326 77.943359375 316 c 0
 75.943359375 311 74.943359375 301 67.943359375 300 c 0
 56.943359375 299 59.943359375 314 61.943359375 320 c 0
 67.943359375 337 81.943359375 366 102.943359375 366 c 0
 104.943359375 366 105.943359375 365 107.943359375 365 c 0
 151.943359375 355 181.943359375 292 227.943359375 292 c 0
 256.943359375 292 279.943359375 318 293.943359375 338 c 0
 297.943359375 344 297.943359375 364 305.943359375 366 c 0
EndSplineSet
EndChar

StartChar: comma
Encoding: 44 44 87
Width: 154
VWidth: 0
Flags: HW
HStem: -8 108
VStem: 77 17<21.5156 99.6463>
LayerCount: 2
Back
Fore
SplineSet
76 100 m 0
 78 101 80 102 81 102 c 0
 93 102 94 67 94 52 c 0
 94 29 90 1 71 -8 c 0
 66 -10 60 -9 60 -2 c 0
 61 7 70 13 73 21 c 0
 77 32 77 43 77 55 c 2
 77 68 l 2
 77 74 73 84 73 92 c 0
 73 96 74 98 76 100 c 0
EndSplineSet
EndChar

StartChar: braceright
Encoding: 125 125 88
Width: 338
VWidth: 0
Flags: HW
HStem: -7 16<82.5346 150.037> 414 17<222.719 255.393> 676 17<76.7806 122.078>
VStem: 131 17<389.565 536.368> 143 16<501.713 647.643> 168 14<48.6875 247.11>
LayerCount: 2
Back
Fore
SplineSet
238 431 m 0xf4
 260 431 278 409 278 381 c 0
 278 346 253 307 219 307 c 0
 211 307 203 309 194 314 c 1
 189 252 185 190 182 128 c 0
 180 92 183 56 172 20 c 0
 165 -1 149 -7 131 -7 c 0
 122 -7 113 -6 104 -4 c 0
 97 -3 80 -2 77 6 c 0
 71 24 118 9 129 9 c 0
 142 9 154 14 158 32 c 0
 166 68 168 105 168 142 c 0
 168 162 167 183 167 203 c 0
 167 244 169 285 180 324 c 1
 159 334 146 367 139 388 c 0
 133 407 131 426 131 446 c 0xf4
 131 493 143 541 143 587 c 0
 143 614 142 651 120 670 c 0
 115 674 109 676 102 676 c 0
 97 676 91 675 86 673 c 0
 80 670 69 661 63 667 c 0
 61 669 60 670 60 672 c 0
 60 685 90 693 100 693 c 0
 145 693 159 641 159 592 c 0xec
 159 545 148 495 148 449 c 0
 148 411 155 376 182 344 c 1
 192 375 198 431 238 431 c 0xf4
196 330 m 1
 237 308 273 356 260 396 c 0
 256 409 248 414 240 414 c 0
 231 414 221 407 215 396 c 0
 204 377 203 353 196 330 c 1
EndSplineSet
EndChar

StartChar: c
Encoding: 99 99 89
Width: 362
VWidth: 0
Flags: HW
HStem: -5 15<166.229 255.779> 356 16<150.511 232.897>
VStem: 60 16<120.273 255.035> 273 24<279.373 336.083>
LayerCount: 2
Back
Fore
SplineSet
60 184 m 0
 60 274 96 372 185 372 c 0
 219 372 270 360 287 338 c 0
 291 332 297 317 297 302 c 0
 297 295 295 278 287 278 c 0
 280 278 278 319 273 326 c 0
 260 344 212 356 184 356 c 0
 143 356 113 324 97 294 c 0
 83 269 76 231 76 191 c 0
 76 131 92 67 127 38 c 0
 149 20 181 10 212 10 c 0
 233 10 254 15 271 24 c 0
 292 35 297 51 307 71 c 0
 309 75 313 80 318 77 c 0
 325 73 320 61 318 55 c 0
 310 35 299 20 279 10 c 0
 259 0 237 -5 215 -5 c 0
 175 -5 133 4 105 35 c 0
 76 67 60 125 60 184 c 0
EndSplineSet
EndChar

StartChar: m
Encoding: 109 109 90
Width: 547
VWidth: 0
Flags: HW
HStem: 334 20G<43.1321 52.6321> 352 18<156.898 213.853 390.943 419.316>
VStem: 41.6321 17<144.928 353.593> 49.6321 20<2.13647 248.682> 283.632 18<115.009 185.617> 467.632 20<13.1256 225.675>
LayerCount: 2
Back
Fore
SplineSet
65.6328125 144 m 1xac
 67.6328125 203 87.6328125 286 121.6328125 332 c 0
 139.6328125 357 163.6328125 368 187.6328125 368 c 0
 204.6328125 368 220.6328125 364 236.6328125 350 c 0
 248.6328125 341 257.6328125 327 265.6328125 314 c 0
 281.6328125 288 288.6328125 261 298.6328125 232 c 1
 304.6328125 280 334.6328125 332 372.6328125 355 c 0
 382.6328125 361 394.6328125 365 406.6328125 365 c 0
 420.6328125 365 434.6328125 360 443.6328125 348 c 0
 457.6328125 329 462.6328125 303 467.6328125 281 c 0
 483.6328125 212 487.6328125 143 487.6328125 65 c 0
 487.6328125 58 487.6328125 42 487.6328125 34 c 0
 487.6328125 26 487.6328125 3 481.6328125 -3 c 0
 474.6328125 -10 467.6328125 0 467.6328125 7 c 0
 467.6328125 9 467.6328125 12 467.6328125 14 c 0
 467.6328125 32 470.6328125 66 470.6328125 84 c 0
 470.6328125 150 464.6328125 220 448.6328125 284 c 0
 442.6328125 307 436.6328125 346 406.6328125 346 c 0
 388.6328125 346 374.6328125 335 361.6328125 322 c 0
 327.6328125 290 312.6328125 234 305.6328125 186 c 0
 302.6328125 167 303.6328125 151 301.6328125 132 c 0
 300.6328125 126 299.6328125 115 292.6328125 115 c 0
 285.6328125 115 283.6328125 127 283.6328125 142 c 0
 283.6328125 159 285.6328125 178 285.6328125 186 c 0
 284.6328125 236 266.6328125 286 235.6328125 323 c 0
 222.6328125 340 204.6328125 350 185.6328125 350 c 0
 144.6328125 350 124.6328125 306 112.6328125 277 c 0
 90.6328125 220 80.6328125 152 74.6328125 91 c 0
 72.6328125 68 69.6328125 36 69.6328125 13 c 0
 69.6328125 6 68.552734375 -4.8681640625 60.6328125 -6 c 0
 46.6328125 -8 48.6328125 14 48.6328125 31 c 0x5c
 48.6328125 43 47.6328125 61 47.6328125 65 c 0
 45.6328125 136 42.6328125 207 41.6328125 279 c 0
 41.6328125 289 41.6328125 298 41.6328125 308 c 0
 41.6328125 318 41.6328125 337 40.6328125 347 c 4
 39.6328125 353 38.6328125 365 47.6328125 365 c 4
 57.6328125 365 59.6328125 350 59.6328125 337 c 4
 59.6328125 329 58.6328125 311 58.6328125 307 c 0
 58.6328125 252 63.6328125 199 63.6328125 144 c 1
 65.6328125 144 l 1xac
EndSplineSet
EndChar

StartChar: G
Encoding: 71 71 91
Width: 536
VWidth: 0
Flags: HW
HStem: 7 18<241.698 336.057> 331 20<283.235 373.359> 656 15<279.438 350.021>
VStem: 60 16<237.703 389.84> 400 16<581.149 619.48> 487 16<25.0981 300.763>
LayerCount: 2
Back
Fore
SplineSet
467 265 m 1
 472 254 475 241 475 227 c 0
 475 192 460 152 446 127 c 0
 415 72 368 7 295 7 c 0
 261 7 224 20 195 36 c 0
 135 67 94 134 76 199 c 0
 65 237 60 277 60 317 c 0
 60 400 84 482 135 549 c 0
 179 607 247 671 319 671 c 0
 340 671 360 665 381 653 c 0
 400 643 412 627 416 605 c 0
 417 599 421 584 413 581 c 0
 403 577 401 595 400 601 c 0
 393 632 367 644 340 652 c 0
 332 654 324 656 316 656 c 0
 252 656 184 585 149 539 c 0
 101 476 76 395 76 314 c 0
 76 249 92 184 126 129 c 0
 161 74 224 25 291 25 c 0
 297 25 303 25 310 26 c 0
 372 35 429 112 447 170 c 0
 456 199 451 226 455 255 c 0
 456 262 461 264 467 265 c 1
283 348 m 0
 288 350 294 351 300 351 c 0
 314 351 330 347 341 346 c 0
 378 340 414 336 451 331 c 0
 467 329 490 325 498 310 c 0
 502 302 503 291 503 280 c 0
 503 243 503 205 503 168 c 0
 503 132 505 95 505 59 c 0
 505 55 506 49 506 43 c 0
 506 35 505 27 499 25 c 0
 498 25 497 24 496 24 c 0
 490 24 489 35 489 44 c 2
 489 55 l 2
 489 90 487 125 487 160 c 2
 487 259 l 2
 487 265 488 272 488 279 c 0
 488 287 487 296 483 301 c 0
 475 313 454 313 441 315 c 0
 402 320 363 327 324 332 c 1
 317 332 l 2
 310 332 302 331 295 331 c 0
 291 331 287 332 283 333 c 0
 276 336 276 345 283 348 c 0
EndSplineSet
EndChar

StartChar: K
Encoding: 75 75 92
Width: 390
VWidth: 0
Flags: HW
HStem: 644 20G<85.5 93.5>
VStem: 80 18<546.797 663.993> 88 30<343.125 401.44> 110 17<8.09594 322.788>
LayerCount: 2
Back
Fore
SplineSet
89 664 m 0xc0
 98 664 98 656 98 648 c 0xc0
 98 630 99 614 101 596 c 0
 108 523 108 485 117 417 c 1
 166 487 237 541 292 607 c 0
 304 620 314 640 329 650 c 0
 335 654 346 652 344 642 c 0
 341 625 313 603 303 590 c 0
 261 540 213 496 169 448 c 0
 149 427 118 405 118 374 c 0xa0
 118 372 119 369 119 367 c 0
 122 336 165 300 185 279 c 0
 239 220 290 157 336 92 c 0
 350 73 362 53 376 35 c 0
 380 28 390 19 390 10 c 0
 390 -5 373 7 369 13 c 0
 354 34 339 56 325 76 c 0
 262 164 192 246 121 325 c 1
 127 285 129 242 129 199 c 0
 129 170 128 140 127 112 c 0
 127 100 128 71 128 47 c 0
 128 35 128 25 127 19 c 0
 126 12 119 1 111 8 c 0
 108 10 107 15 107 20 c 0
 107 27 109 36 109 41 c 0
 110 72 110 144 110 175 c 0x90
 110 229 110 284 104 338 c 0
 103 351 88 357 88 369 c 0xa0
 88 381 99 390 100 402 c 0
 100 408 101 415 101 421 c 0
 101 457 94 496 91 531 c 0
 85 578 84 578 81 627 c 0
 81 630 80 637 80 644 c 0
 80 654 82 664 89 664 c 0xc0
EndSplineSet
EndChar

StartChar: X
Encoding: 88 88 93
Width: 440
VWidth: 0
Flags: HW
HStem: 318 36<240.559 256.462>
VStem: 237.07 24<318.778 352.897>
LayerCount: 2
Back
Fore
SplineSet
249.0703125 354 m 1
 288.0703125 437 334.0703125 516 375.0703125 598 c 0
 386.0703125 619 394.0703125 641 405.0703125 662 c 0
 408.0703125 667 420.0703125 680 424.0703125 668 c 0
 426.0703125 661 418.0703125 652 416.0703125 646 c 0
 381.0703125 564 338.0703125 489 298.0703125 412 c 0
 287.0703125 392 261.0703125 360 261.0703125 336 c 0
 261.0703125 318 288.0703125 287 298.0703125 272 c 0
 332.0703125 218 365.0703125 163 398.0703125 108 c 0
 406.0703125 95 430.0703125 48 439.0703125 36 c 0
 443.0703125 31 450.0703125 25 450.0703125 18 c 0
 450.0703125 6 435.0703125 14 431.0703125 18 c 0
 418.0703125 31 393.0703125 83 384.0703125 98 c 0
 354.0703125 148 323.0703125 198 293.0703125 248 c 0
 279.0703125 270 260.0703125 293 251.0703125 318 c 1
 247.0703125 318 l 1
 240.0703125 292 222.0703125 268 210.0703125 244 c 0
 181.0703125 189 150.0703125 134 118.0703125 80 c 0
 106.0703125 61 96.0703125 37 81.0703125 20 c 0
 77.0703125 15 61.0703125 7 60.0703125 19 c 0
 59.0703125 26 69.0703125 33 73.0703125 38 c 0
 85.0703125 55 94.0703125 74 105.0703125 92 c 0
 141.0703125 150 174.0703125 211 205.0703125 272 c 0
 213.0703125 288 237.0703125 317 237.0703125 335 c 0
 237.0703125 356 212.0703125 384 203.0703125 402 c 0
 164.0703125 480 125.0703125 557 85.0703125 634 c 0
 81.0703125 641 74.0703125 652 76.0703125 660 c 0
 78.0703125 669 87.0703125 667 91.0703125 660 c 0
 103.0703125 638 114.0703125 614 126.0703125 592 c 0
 167.0703125 515 213.0703125 435 247.0703125 354 c 1
 249.0703125 354 l 1
EndSplineSet
EndChar

StartChar: seven
Encoding: 55 55 94
Width: 445
VWidth: 0
Flags: HW
HStem: 626 14<220.072 368.117> 631 21<60.6689 296.893>
VStem: 60.5203 324
LayerCount: 2
Back
Fore
SplineSet
358.520507812 643 m 0xa0
 374.520507812 643 384.520507812 637 384.520507812 621 c 0
 384.520507812 613 381.520507812 603 379.520507812 596 c 0
 372.520507812 567 364.520507812 538 356.520507812 510 c 0
 324.520507812 397 297.520507812 283 265.520507812 170 c 0
 255.520507812 135 247.520507812 99 236.520507812 64 c 0
 234.520507812 57 231.520507812 36 220.520507812 36 c 0
 219.520507812 36 218.520507812 37 217.520507812 37 c 0
 214.520507812 38 213.520507812 41 213.520507812 44 c 0
 213.520507812 53 220.520507812 66 221.520507812 70 c 0
 232.520507812 105 241.520507812 141 250.520507812 176 c 0
 275.520507812 271 300.520507812 365 326.520507812 460 c 0
 341.520507812 514 361.520507812 570 368.520507812 626 c 1
 364.520507812 626 360.520507812 626 356.520507812 626 c 0xa0
 281.520507812 626 207.520507812 634 132.520507812 634 c 0
 110.520507812 634 89.5205078125 632 68.5205078125 631 c 0
 62.5205078125 631 58.5205078125 636 60.5205078125 642 c 0
 63.5205078125 650 77.5205078125 652 92.5205078125 652 c 0x60
 107.520507812 652 123.520507812 650 130.520507812 650 c 0
 194.520507812 650 257.520507812 644 320.520507812 640 c 1
 322.520507812 640 l 2
 331.520507812 640 345.520507812 643 358.520507812 643 c 0xa0
EndSplineSet
EndChar

StartChar: exclam
Encoding: 33 33 95
Width: 154
VWidth: 0
Flags: HW
HStem: 643 20G<79.5 84>
VStem: 60 34<13.7088 63.718> 61 16<220.1 453.524> 73 17<413.039 661.855>
LayerCount: 2
Back
Fore
SplineSet
77 662 m 0xa0
 78 662 79 663 80 663 c 0
 88 663 90 642 90 622 c 0x90
 90 607 89 593 89 586 c 0
 89 511 79 365 79 290 c 0
 79 273 77 255 77 238 c 0
 77 232 78 222 71 220 c 0
 62 217 61 230 61 236 c 0xa0
 61 256 64 276 64 296 c 0
 64 371 73 517 73 592 c 2
 73 644 l 2x90
 73 650 70 659 77 662 c 0xa0
86 63 m 0
 91 58 94 52 94 45 c 0
 94 29 80 11 70 11 c 0
 62 11 60 23 60 33 c 0xc0
 60 37 60 42 61 44 c 0xa0
 63 51 65 58 68 64 c 0
 74 74 81 68 86 63 c 0
EndSplineSet
EndChar

StartChar: underscore
Encoding: 95 95 96
Width: 459
VWidth: 0
Flags: HW
HStem: 12 15<65.3205 396.179>
LayerCount: 2
Back
Fore
SplineSet
219.41796875 10 m 0
 184.41796875 10 148.41796875 12 113.41796875 12 c 0
 104.41796875 12 95.41796875 12 86.41796875 12 c 0
 79.41796875 12 73.41796875 12 67.41796875 13 c 0
 60.41796875 14 56.41796875 24 64.41796875 28 c 0
 83.41796875 38 118.41796875 27 139.41796875 27 c 0
 178.41796875 26 217.41796875 25 256.41796875 25 c 2
 337.41796875 28 l 2
 348.41796875 29 360.41796875 30 372.41796875 30 c 0
 383.41796875 30 406.41796875 27 396.41796875 16 c 0
 391.41796875 11 380.41796875 13 373.41796875 13 c 0
 354.41796875 13 336.41796875 11 317.41796875 11 c 0
 285.41796875 11 252.41796875 10 219.41796875 10 c 0
EndSplineSet
EndChar

StartChar: period
Encoding: 46 46 97
Width: 174
VWidth: 0
Flags: HW
HStem: 25 63<62.5156 111.199>
VStem: 60 54<25.6492 85.6474>
LayerCount: 2
Back
Fore
SplineSet
86 87 m 0
 88 87 90 88 92 88 c 0
 107 88 114 76 114 62 c 0
 114 46 105 29 90 25 c 1
 86 25 l 2
 72 25 61 44 60 57 c 2
 60 59 l 2
 60 73 73 84 86 87 c 0
EndSplineSet
EndChar

StartChar: q
Encoding: 113 113 98
Width: 366
VWidth: 0
Flags: HW
HStem: 3 17<70.1633 132.739> 350 19<155.417 239.677>
VStem: 20 20<59.4905 178.937> 302 24<-31.4278 188.109 203.05 270.298> 314 21<-187.852 7.30435>
LayerCount: 2
Back
Fore
SplineSet
314 -156 m 2xe8
 314 -74 309 -69 307 11 c 0
 306 50 302 91 302 131 c 0
 302 151 303 170 306 189 c 1
 304 189 l 1
 289 144 255 101 222 70 c 0
 200 50 178 33 151 18 c 0
 132 7 115 3 100 3 c 0
 50 3 20 53 20 116 c 0
 20 198 61 299 128 348 c 0
 147 362 171 369 196 369 c 0
 249 369 304 338 319 286 c 1
 328 286 336 282 336 271 c 0
 336 256 330 243 328 229 c 0
 326 206 326 181 326 158 c 0xf0
 326 50 335 19 335 -89 c 2
 335 -164 l 2
 335 -172 336 -185 327 -188 c 0
 326 -188 325 -188 324 -188 c 0
 315 -188 314 -176 314 -166 c 2
 314 -156 l 2xe8
199 350 m 0
 98 350 48 210 41 128 c 0
 41 124 40 119 40 114 c 0
 40 76 52 20 95 20 c 2
 97 20 l 1
 175 25 243 119 277 181 c 0
 288 200 305 224 307 245 c 0
 309 255 304 261 301 270 c 0
 289 314 246 350 199 350 c 0
EndSplineSet
EndChar

